<?xml version="1.0" encoding="utf-8"?>
<!-- Generator: Adobe Illustrator 22.1.0, SVG Export Plug-In . SVG Version: 6.00 Build 0)  -->
<svg version="1.1" id="Capa_1" xmlns="http://www.w3.org/2000/svg" xmlns:xlink="http://www.w3.org/1999/xlink" x="0px" y="0px"
	 viewBox="0 0 27.3 27.3" style="enable-background:new 0 0 27.3 27.3;" xml:space="preserve">
<style type="text/css">
	.st0{fill:#395398;}
	.st1{fill:#FFFFFF;}
</style>
<g>
	<path class="st0" d="M27.3,22.6c0,2.6-2.1,4.7-4.7,4.7h-18c-2.6,0-4.7-2.1-4.7-4.7v-18C0,2.1,2.1,0,4.7,0h18c2.6,0,4.7,2.1,4.7,4.7
		V22.6z"/>
	<path class="st1" d="M18.7,27.3V16.8h3.5l0.5-4.1h-4v-2.6c0-1.2,0.3-2,2-2l2.2,0V4.5c-0.4,0-1.7-0.2-3.2-0.2
		c-3.1,0-5.3,1.9-5.3,5.4v3H11v4.1h3.5v10.5H18.7L18.7,27.3z"/>
</g>
</svg>
