<svg xmlns="http://www.w3.org/2000/svg" xmlns:xlink="http://www.w3.org/1999/xlink" viewBox="0 0 1411.94 1238.43"><defs><clipPath id="clip-path" transform="translate(230.57 502.88)"><rect id="_Trazado_de_recorte_" data-name="&lt;Trazado de recorte&gt;" width="750" height="500" style="fill:none"/></clipPath><radialGradient id="Degradado_sin_nombre_40" cx="-5.78" cy="371.16" r="1015.51" gradientTransform="translate(158.05 449.72) scale(1.24 1.27)" gradientUnits="userSpaceOnUse"><stop offset="0" stop-color="#4900b9"/><stop offset="0.24" stop-color="#2e56d2"/><stop offset="0.44" stop-color="#189ce7"/><stop offset="0.59" stop-color="#0ac7f3"/><stop offset="0.66" stop-color="#05d7f8"/><stop offset="0.82" stop-color="#1c94d0"/><stop offset="1" stop-color="#364aa3"/></radialGradient><linearGradient id="Degradado_sin_nombre_27" x1="649.46" y1="747.06" x2="649.46" y2="271.04" gradientUnits="userSpaceOnUse"><stop offset="0" stop-color="#05d7f8" stop-opacity="0"/><stop offset="0.1" stop-color="#11c9f8" stop-opacity="0.07"/><stop offset="0.3" stop-color="#32a6f7" stop-opacity="0.25"/><stop offset="0.58" stop-color="#676cf5" stop-opacity="0.53"/><stop offset="0.93" stop-color="#ae1df3" stop-opacity="0.92"/><stop offset="1" stop-color="#bd0df3"/></linearGradient><linearGradient id="Degradado_sin_nombre_27-2" x1="749.55" y1="403.14" x2="749.55" y2="-246.5" xlink:href="#Degradado_sin_nombre_27"/><linearGradient id="Degradado_sin_nombre_27-3" x1="698.46" y1="214.15" x2="698.46" y2="-111.83" xlink:href="#Degradado_sin_nombre_27"/><linearGradient id="Degradado_sin_nombre_27-4" x1="378.78" y1="102.76" x2="378.78" y2="-153.29" xlink:href="#Degradado_sin_nombre_27"/><linearGradient id="Degradado_sin_nombre_27-5" x1="426.62" y1="158.06" x2="426.62" y2="512.24" xlink:href="#Degradado_sin_nombre_27"/><linearGradient id="Degradado_sin_nombre_27-7" x1="239.93" y1="66.86" x2="239.93" y2="313.99" xlink:href="#Degradado_sin_nombre_27"/><linearGradient id="Degradado_sin_nombre_26" x1="20.06" y1="647.24" x2="300.15" y2="301.36" gradientTransform="matrix(0.77, -0.63, 0.63, 0.77, -264.24, 231.45)" gradientUnits="userSpaceOnUse"><stop offset="0" stop-color="#bd0df3"/><stop offset="0.07" stop-color="#ae1df3" stop-opacity="0.92"/><stop offset="0.42" stop-color="#676cf5" stop-opacity="0.53"/><stop offset="0.7" stop-color="#32a6f7" stop-opacity="0.25"/><stop offset="0.9" stop-color="#11c9f8" stop-opacity="0.07"/><stop offset="1" stop-color="#05d7f8" stop-opacity="0"/></linearGradient><linearGradient id="Degradado_sin_nombre_26-3" x1="158.22" y1="599.96" x2="438.29" y2="254.1" gradientTransform="matrix(0.77, -0.82, 0.63, 1, -292.32, 396.57)" xlink:href="#Degradado_sin_nombre_26"/><linearGradient id="Degradado_sin_nombre_26-5" x1="-58.3" y1="305.71" x2="221.78" y2="-40.16" gradientTransform="translate(-28.74 98.09) rotate(-39.32)" xlink:href="#Degradado_sin_nombre_26"/><radialGradient id="Degradado_sin_nombre_42" cx="396.36" cy="155.06" r="347.33" xlink:href="#Degradado_sin_nombre_27"/><radialGradient id="Degradado_sin_nombre_42-2" cx="240.36" cy="61.06" r="234.14" xlink:href="#Degradado_sin_nombre_27"/><linearGradient id="Degradado_sin_nombre_27-10" x1="0" y1="569.06" x2="0" y2="226.35" xlink:href="#Degradado_sin_nombre_27"/><clipPath id="clip-path-2" transform="translate(230.57 502.88)"><circle id="_Trazado_de_recorte_2" data-name="&lt;Trazado de recorte&gt;" cx="633.1" cy="536.98" r="102.47" transform="translate(-194.27 604.94) rotate(-45)" style="fill:none"/></clipPath><radialGradient id="Degradado_sin_nombre_54" cx="645.93" cy="69.49" r="82.05" gradientUnits="userSpaceOnUse"><stop offset="0" stop-color="#fff"/><stop offset="0.11" stop-color="#fff" stop-opacity="0.88"/><stop offset="0.44" stop-color="#fff" stop-opacity="0.51"/><stop offset="0.71" stop-color="#fff" stop-opacity="0.23"/><stop offset="0.9" stop-color="#fff" stop-opacity="0.06"/><stop offset="1" stop-color="#fff" stop-opacity="0"/></radialGradient><linearGradient id="Degradado_sin_nombre_26-9" x1="-196.2" y1="337.48" x2="83.88" y2="-8.39" gradientTransform="translate(-82.68 3.03) rotate(-39.32)" xlink:href="#Degradado_sin_nombre_26"/><clipPath id="clip-path-3" transform="translate(230.57 502.88)"><circle id="_Trazado_de_recorte_3" data-name="&lt;Trazado de recorte&gt;" cx="181.46" cy="-5.79" r="102.47" transform="translate(57.24 126.62) rotate(-45)" style="fill:none"/></clipPath></defs><title>friso</title><g style="isolation:isolate"><g id="BACKGROUND_2" data-name="BACKGROUND 2"><g id="_Grupo_" data-name="&lt;Grupo&gt;"><g id="_Grupo_2" data-name="&lt;Grupo&gt;"><g id="_Recortar_grupo_" data-name="&lt;Recortar grupo&gt;"><g style="clip-path:url(#clip-path)"><rect id="_Trazado_" data-name="&lt;Trazado&gt;" x="230.57" y="502.88" width="750" height="500" style="fill:url(#Degradado_sin_nombre_40)"/><g id="_Grupo_3" data-name="&lt;Grupo&gt;" style="opacity:0.6000000000000001;mix-blend-mode:multiply"><path id="_Trazado_compuesto_" data-name="&lt;Trazado compuesto&gt;" d="M649.46,722.89,435.74,509.16,649.46,295.43,863.18,509.16ZM519.17,509.16,649.46,639.45,779.75,509.16,649.46,378.87Z" transform="translate(230.57 502.88)" style="fill:url(#Degradado_sin_nombre_27)"/></g><g id="_Grupo_4" data-name="&lt;Grupo&gt;"><path id="_Trazado_compuesto_2" data-name="&lt;Trazado compuesto&gt;" d="M749.55,360.77,317.73-71.06,749.55-502.88,1181.37-71.06ZM486.32-71.06,749.55,192.18,1012.79-71.06,749.55-334.29Z" transform="translate(230.57 502.88)" style="fill:url(#Degradado_sin_nombre_27-2)"/></g><g id="_Grupo_5" data-name="&lt;Grupo&gt;"><path id="_Trazado_compuesto_3" data-name="&lt;Trazado compuesto&gt;" d="M698.45,184.42,474.9-39.14,698.45-262.7,922-39.14Zm-112-223.56,112,112,112-112-112-112Z" transform="translate(230.57 502.88)" style="fill:url(#Degradado_sin_nombre_27-3)"/></g><g id="_Grupo_6" data-name="&lt;Grupo&gt;"><path id="_Trazado_compuesto_4" data-name="&lt;Trazado compuesto&gt;" d="M378.78,89.76l-115-115,115-115,115,115Zm-57.6-115,57.6,57.6,57.6-57.6-57.6-57.6Z" transform="translate(230.57 502.88)" style="fill:url(#Degradado_sin_nombre_27-4)"/></g><g id="_Grupo_7" data-name="&lt;Grupo&gt;"><path id="_Trazado_compuesto_5" data-name="&lt;Trazado compuesto&gt;" d="M426.62,420.8l-115-115,115-115,115,115Zm-57.6-115,57.6,57.6,57.6-57.6-57.6-57.6Z" transform="translate(230.57 502.88)" style="fill:url(#Degradado_sin_nombre_27-5)"/></g><g id="_Grupo_8" data-name="&lt;Grupo&gt;" style="mix-blend-mode:multiply"><path id="_Trazado_compuesto_6" data-name="&lt;Trazado compuesto&gt;" d="M426.62,420.8l-115-115,115-115,115,115Zm-57.6-115,57.6,57.6,57.6-57.6-57.6-57.6Z" transform="translate(230.57 502.88)" style="fill:url(#Degradado_sin_nombre_27-5)"/></g><g id="_Grupo_9" data-name="&lt;Grupo&gt;"><path id="_Trazado_compuesto_7" data-name="&lt;Trazado compuesto&gt;" d="M239.93,250.18,159.72,170l80.21-80.21L320.14,170ZM199.74,170l40.19,40.19L280.12,170l-40.19-40.19Z" transform="translate(230.57 502.88)" style="fill:url(#Degradado_sin_nombre_27-7)"/></g><g id="_Grupo_10" data-name="&lt;Grupo&gt;"><rect id="_Rectángulo_" data-name="&lt;Rectángulo&gt;" x="99.72" y="187.56" width="119.99" height="466.48" transform="translate(578.01 514.61) rotate(45.43)" style="fill:url(#Degradado_sin_nombre_26)"/><rect id="_Rectángulo_2" data-name="&lt;Rectángulo&gt;" x="99.72" y="187.56" width="119.99" height="466.48" transform="translate(578.01 514.61) rotate(45.43)" style="mix-blend-mode:multiply;fill:url(#Degradado_sin_nombre_26)"/></g><g id="_Grupo_11" data-name="&lt;Grupo&gt;"><rect id="_Rectángulo_3" data-name="&lt;Rectángulo&gt;" x="148.59" y="179.17" width="119.99" height="603.66" transform="translate(635.47 497.75) rotate(45.43)" style="fill:url(#Degradado_sin_nombre_26-3)"/><rect id="_Rectángulo_4" data-name="&lt;Rectángulo&gt;" x="148.59" y="179.17" width="119.99" height="603.66" transform="translate(635.47 497.75) rotate(45.43)" style="mix-blend-mode:multiply;fill:url(#Degradado_sin_nombre_26-3)"/></g><g id="_Grupo_12" data-name="&lt;Grupo&gt;"><g id="_Grupo_13" data-name="&lt;Grupo&gt;"><rect id="_Rectángulo_5" data-name="&lt;Rectángulo&gt;" x="58.21" y="-160.37" width="119.99" height="466.48" transform="translate(317.74 440.4) rotate(45.43)" style="fill:url(#Degradado_sin_nombre_26-5)"/><rect id="_Rectángulo_6" data-name="&lt;Rectángulo&gt;" x="58.21" y="-160.37" width="119.99" height="466.48" transform="translate(317.74 440.4) rotate(45.43)" style="mix-blend-mode:multiply;fill:url(#Degradado_sin_nombre_26-5)"/></g><g id="_Grupo_14" data-name="&lt;Grupo&gt;"><rect id="_Rectángulo_7" data-name="&lt;Rectángulo&gt;" x="58.21" y="-160.37" width="119.99" height="466.48" transform="translate(317.74 440.4) rotate(45.43)" style="fill:url(#Degradado_sin_nombre_26-5)"/><rect id="_Rectángulo_8" data-name="&lt;Rectángulo&gt;" x="58.21" y="-160.37" width="119.99" height="466.48" transform="translate(317.74 440.4) rotate(45.43)" style="mix-blend-mode:multiply;fill:url(#Degradado_sin_nombre_26-5)"/></g></g><g id="_Grupo_15" data-name="&lt;Grupo&gt;"><path id="_Trazado_compuesto_8" data-name="&lt;Trazado compuesto&gt;" d="M749.55,360.77,317.73-71.06,749.55-502.88,1181.37-71.06ZM486.32-71.06,749.55,192.18,1012.79-71.06,749.55-334.29Z" transform="translate(230.57 502.88)" style="fill:url(#Degradado_sin_nombre_27-2)"/></g><g id="_Grupo_16" data-name="&lt;Grupo&gt;" style="mix-blend-mode:multiply"><path id="_Trazado_compuesto_9" data-name="&lt;Trazado compuesto&gt;" d="M698.45,184.42,474.9-39.14,698.45-262.7,922-39.14Zm-112-223.56,112,112,112-112-112-112Z" transform="translate(230.57 502.88)" style="fill:url(#Degradado_sin_nombre_27-3)"/></g><g id="_Grupo_17" data-name="&lt;Grupo&gt;" style="mix-blend-mode:multiply"><path id="_Trazado_compuesto_10" data-name="&lt;Trazado compuesto&gt;" d="M378.78,89.76l-115-115,115-115,115,115Zm-57.6-115,57.6,57.6,57.6-57.6-57.6-57.6Z" transform="translate(230.57 502.88)" style="fill:url(#Degradado_sin_nombre_42)"/></g><g id="_Grupo_18" data-name="&lt;Grupo&gt;" style="mix-blend-mode:multiply"><path id="_Trazado_compuesto_11" data-name="&lt;Trazado compuesto&gt;" d="M239.93,250.18,159.72,170l80.21-80.21L320.14,170ZM199.74,170l40.19,40.19L280.12,170l-40.19-40.19Z" transform="translate(230.57 502.88)" style="fill:url(#Degradado_sin_nombre_42-2)"/></g><g id="_Grupo_19" data-name="&lt;Grupo&gt;"><g id="_Grupo_20" data-name="&lt;Grupo&gt;"><path id="_Trazado_compuesto_12" data-name="&lt;Trazado compuesto&gt;" d="M0,722.89-213.72,509.16,0,295.43,213.72,509.16ZM-130.29,509.16,0,639.45,130.29,509.16,0,378.87Z" transform="translate(230.57 502.88)" style="fill:url(#Degradado_sin_nombre_27-10)"/></g><g id="_Grupo_21" data-name="&lt;Grupo&gt;" style="mix-blend-mode:multiply"><path id="_Trazado_compuesto_13" data-name="&lt;Trazado compuesto&gt;" d="M0,722.89-213.72,509.16,0,295.43,213.72,509.16ZM-130.29,509.16,0,639.45,130.29,509.16,0,378.87Z" transform="translate(230.57 502.88)" style="fill:url(#Degradado_sin_nombre_27-10)"/></g></g><g id="_Grupo_22" data-name="&lt;Grupo&gt;" style="opacity:0.7000000000000001"><g id="_Grupo_23" data-name="&lt;Grupo&gt;"><rect id="_Trazado_2" data-name="&lt;Trazado&gt;" x="-173.89" y="491.92" width="303.2" height="2" transform="translate(-121.99 629.2) rotate(-44.6)" style="fill:#fff"/></g><g id="_Grupo_24" data-name="&lt;Grupo&gt;"><rect id="_Trazado_3" data-name="&lt;Trazado&gt;" x="-151.71" y="488.62" width="303.2" height="2" transform="translate(-113.27 643.82) rotate(-44.6)" style="fill:#fff"/></g><g id="_Grupo_25" data-name="&lt;Grupo&gt;"><rect id="_Trazado_4" data-name="&lt;Trazado&gt;" x="-153.71" y="509.38" width="303.2" height="2" transform="translate(-128.44 648.4) rotate(-44.6)" style="fill:#fff"/></g></g><g id="_Grupo_26" data-name="&lt;Grupo&gt;" style="opacity:0.7000000000000001"><g id="_Grupo_27" data-name="&lt;Grupo&gt;"><rect id="_Trazado_5" data-name="&lt;Trazado&gt;" x="542.84" y="200.08" width="303.2" height="2" transform="translate(289.39 1048.44) rotate(-44.6)" style="fill:#fff"/></g><g id="_Grupo_28" data-name="&lt;Grupo&gt;"><rect id="_Trazado_6" data-name="&lt;Trazado&gt;" x="565.02" y="196.78" width="303.2" height="2" transform="translate(298.1 1063.07) rotate(-44.6)" style="fill:#fff"/></g><g id="_Grupo_29" data-name="&lt;Grupo&gt;"><rect id="_Trazado_7" data-name="&lt;Trazado&gt;" x="563.02" y="217.54" width="303.2" height="2" transform="translate(282.94 1067.64) rotate(-44.6)" style="fill:#fff"/></g></g><g id="_Recortar_grupo_2" data-name="&lt;Recortar grupo&gt;" style="opacity:0.5;mix-blend-mode:soft-light"><g style="clip-path:url(#clip-path-2)"><g id="_Grupo_30" data-name="&lt;Grupo&gt;"><g id="_Grupo_31" data-name="&lt;Grupo&gt;"><line id="_Trazado_8" data-name="&lt;Trazado&gt;" x1="688.72" y1="1049.41" x2="859.46" y2="881.19" style="fill:none;stroke:#fff;stroke-miterlimit:10;stroke-width:2px"/><line id="_Trazado_9" data-name="&lt;Trazado&gt;" x1="706.26" y1="1046.81" x2="877" y2="878.58" style="fill:none;stroke:#fff;stroke-miterlimit:10;stroke-width:2px"/><line id="_Trazado_10" data-name="&lt;Trazado&gt;" x1="704.68" y1="1063.22" x2="875.42" y2="895" style="fill:none;stroke:#fff;stroke-miterlimit:10;stroke-width:2px"/></g><g id="_Grupo_32" data-name="&lt;Grupo&gt;"><line id="_Trazado_11" data-name="&lt;Trazado&gt;" x1="710.51" y1="1073.51" x2="881.26" y2="905.28" style="fill:none;stroke:#fff;stroke-miterlimit:10;stroke-width:2px"/><line id="_Trazado_12" data-name="&lt;Trazado&gt;" x1="728.05" y1="1070.9" x2="898.79" y2="902.67" style="fill:none;stroke:#fff;stroke-miterlimit:10;stroke-width:2px"/><line id="_Trazado_13" data-name="&lt;Trazado&gt;" x1="726.47" y1="1087.31" x2="897.21" y2="919.09" style="fill:none;stroke:#fff;stroke-miterlimit:10;stroke-width:2px"/></g><g id="_Grupo_33" data-name="&lt;Grupo&gt;"><line id="_Trazado_14" data-name="&lt;Trazado&gt;" x1="732.3" y1="1097.6" x2="903.05" y2="929.37" style="fill:none;stroke:#fff;stroke-miterlimit:10;stroke-width:2px"/><line id="_Trazado_15" data-name="&lt;Trazado&gt;" x1="749.84" y1="1094.99" x2="920.59" y2="926.77" style="fill:none;stroke:#fff;stroke-miterlimit:10;stroke-width:2px"/><line id="_Trazado_16" data-name="&lt;Trazado&gt;" x1="748.26" y1="1111.4" x2="919" y2="943.18" style="fill:none;stroke:#fff;stroke-miterlimit:10;stroke-width:2px"/></g><g id="_Grupo_34" data-name="&lt;Grupo&gt;"><line id="_Trazado_17" data-name="&lt;Trazado&gt;" x1="754.1" y1="1121.69" x2="924.84" y2="953.47" style="fill:none;stroke:#fff;stroke-miterlimit:10;stroke-width:2px"/><line id="_Trazado_18" data-name="&lt;Trazado&gt;" x1="771.64" y1="1119.08" x2="942.38" y2="950.86" style="fill:none;stroke:#fff;stroke-miterlimit:10;stroke-width:2px"/><line id="_Trazado_19" data-name="&lt;Trazado&gt;" x1="770.05" y1="1135.5" x2="940.8" y2="967.27" style="fill:none;stroke:#fff;stroke-miterlimit:10;stroke-width:2px"/></g><g id="_Grupo_35" data-name="&lt;Grupo&gt;"><line id="_Trazado_20" data-name="&lt;Trazado&gt;" x1="775.89" y1="1145.78" x2="946.63" y2="977.56" style="fill:none;stroke:#fff;stroke-miterlimit:10;stroke-width:2px"/><line id="_Trazado_21" data-name="&lt;Trazado&gt;" x1="793.43" y1="1143.17" x2="964.17" y2="974.95" style="fill:none;stroke:#fff;stroke-miterlimit:10;stroke-width:2px"/><line id="_Trazado_22" data-name="&lt;Trazado&gt;" x1="791.85" y1="1159.59" x2="962.59" y2="991.36" style="fill:none;stroke:#fff;stroke-miterlimit:10;stroke-width:2px"/></g><g id="_Grupo_36" data-name="&lt;Grupo&gt;"><line id="_Trazado_23" data-name="&lt;Trazado&gt;" x1="797.68" y1="1169.87" x2="968.43" y2="1001.65" style="fill:none;stroke:#fff;stroke-miterlimit:10;stroke-width:2px"/><line id="_Trazado_24" data-name="&lt;Trazado&gt;" x1="815.22" y1="1167.27" x2="985.96" y2="999.04" style="fill:none;stroke:#fff;stroke-miterlimit:10;stroke-width:2px"/><line id="_Trazado_25" data-name="&lt;Trazado&gt;" x1="813.64" y1="1183.68" x2="984.38" y2="1015.46" style="fill:none;stroke:#fff;stroke-miterlimit:10;stroke-width:2px"/></g><g id="_Grupo_37" data-name="&lt;Grupo&gt;"><line id="_Trazado_26" data-name="&lt;Trazado&gt;" x1="819.48" y1="1193.96" x2="990.22" y2="1025.74" style="fill:none;stroke:#fff;stroke-miterlimit:10;stroke-width:2px"/><line id="_Trazado_27" data-name="&lt;Trazado&gt;" x1="837.01" y1="1191.36" x2="1007.76" y2="1023.13" style="fill:none;stroke:#fff;stroke-miterlimit:10;stroke-width:2px"/><line id="_Trazado_28" data-name="&lt;Trazado&gt;" x1="835.43" y1="1207.77" x2="1006.18" y2="1039.55" style="fill:none;stroke:#fff;stroke-miterlimit:10;stroke-width:2px"/></g><g id="_Grupo_38" data-name="&lt;Grupo&gt;"><line id="_Trazado_29" data-name="&lt;Trazado&gt;" x1="841.27" y1="1218.06" x2="1012.01" y2="1049.83" style="fill:none;stroke:#fff;stroke-miterlimit:10;stroke-width:2px"/><line id="_Trazado_30" data-name="&lt;Trazado&gt;" x1="858.81" y1="1215.45" x2="1029.55" y2="1047.23" style="fill:none;stroke:#fff;stroke-miterlimit:10;stroke-width:2px"/><line id="_Trazado_31" data-name="&lt;Trazado&gt;" x1="857.23" y1="1231.86" x2="1027.97" y2="1063.64" style="fill:none;stroke:#fff;stroke-miterlimit:10;stroke-width:2px"/></g></g></g></g><g id="_Grupo_39" data-name="&lt;Grupo&gt;"><path id="_Trazado_32" data-name="&lt;Trazado&gt;" d="M650.86,65l-1.4-1.42Q657,56.17,664.53,48.7C675.38,38,686.6,26.85,697.72,16l1.4,1.43c-11.12,10.84-22.33,22-33.18,32.69Q658.41,57.59,650.86,65Z" transform="translate(230.57 502.88)" style="fill:url(#Degradado_sin_nombre_54)"/></g><g id="_Grupo_40" data-name="&lt;Grupo&gt;"><g id="_Grupo_41" data-name="&lt;Grupo&gt;"><g id="_Grupo_42" data-name="&lt;Grupo&gt;"><g id="_Grupo_43" data-name="&lt;Grupo&gt;"><g id="_Grupo_44" data-name="&lt;Grupo&gt;"><path id="_Trazado_33" data-name="&lt;Trazado&gt;" d="M710.89,270.15a1.75,1.75,0,1,1-1.75-1.74A1.75,1.75,0,0,1,710.89,270.15Z" transform="translate(230.57 502.88)" style="fill:#fff"/><path id="_Trazado_34" data-name="&lt;Trazado&gt;" d="M710.89,280.59a1.75,1.75,0,1,1-1.75-1.75A1.75,1.75,0,0,1,710.89,280.59Z" transform="translate(230.57 502.88)" style="fill:#fff"/><path id="_Trazado_35" data-name="&lt;Trazado&gt;" d="M710.89,291a1.75,1.75,0,1,1-1.75-1.75A1.75,1.75,0,0,1,710.89,291Z" transform="translate(230.57 502.88)" style="fill:#fff"/><path id="_Trazado_36" data-name="&lt;Trazado&gt;" d="M710.89,301.45a1.75,1.75,0,1,1-1.75-1.75A1.75,1.75,0,0,1,710.89,301.45Z" transform="translate(230.57 502.88)" style="fill:#fff"/><path id="_Trazado_37" data-name="&lt;Trazado&gt;" d="M710.89,311.88a1.75,1.75,0,1,1-1.75-1.75A1.76,1.76,0,0,1,710.89,311.88Z" transform="translate(230.57 502.88)" style="fill:#fff"/><path id="_Trazado_38" data-name="&lt;Trazado&gt;" d="M710.89,322.31a1.75,1.75,0,1,1-1.75-1.75A1.76,1.76,0,0,1,710.89,322.31Z" transform="translate(230.57 502.88)" style="fill:#fff"/><path id="_Trazado_39" data-name="&lt;Trazado&gt;" d="M710.89,332.74a1.75,1.75,0,1,1-1.75-1.75A1.75,1.75,0,0,1,710.89,332.74Z" transform="translate(230.57 502.88)" style="fill:#fff"/><path id="_Trazado_40" data-name="&lt;Trazado&gt;" d="M710.89,343.17a1.75,1.75,0,1,1-1.75-1.74A1.75,1.75,0,0,1,710.89,343.17Z" transform="translate(230.57 502.88)" style="fill:#fff"/></g></g><g id="_Grupo_45" data-name="&lt;Grupo&gt;"><g id="_Grupo_46" data-name="&lt;Grupo&gt;"><path id="_Trazado_41" data-name="&lt;Trazado&gt;" d="M710.89,352.87a1.75,1.75,0,1,1-1.75-1.74A1.75,1.75,0,0,1,710.89,352.87Z" transform="translate(230.57 502.88)" style="fill:#fff"/><path id="_Trazado_42" data-name="&lt;Trazado&gt;" d="M710.89,363.31a1.75,1.75,0,1,1-1.75-1.75A1.75,1.75,0,0,1,710.89,363.31Z" transform="translate(230.57 502.88)" style="fill:#fff"/><path id="_Trazado_43" data-name="&lt;Trazado&gt;" d="M710.89,373.74a1.75,1.75,0,1,1-1.75-1.75A1.75,1.75,0,0,1,710.89,373.74Z" transform="translate(230.57 502.88)" style="fill:#fff"/><path id="_Trazado_44" data-name="&lt;Trazado&gt;" d="M710.89,384.17a1.75,1.75,0,1,1-1.75-1.75A1.75,1.75,0,0,1,710.89,384.17Z" transform="translate(230.57 502.88)" style="fill:#fff"/><path id="_Trazado_45" data-name="&lt;Trazado&gt;" d="M710.89,394.6a1.75,1.75,0,1,1-1.75-1.75A1.75,1.75,0,0,1,710.89,394.6Z" transform="translate(230.57 502.88)" style="fill:#fff"/><path id="_Trazado_46" data-name="&lt;Trazado&gt;" d="M710.89,405a1.75,1.75,0,1,1-1.75-1.75A1.76,1.76,0,0,1,710.89,405Z" transform="translate(230.57 502.88)" style="fill:#fff"/><path id="_Trazado_47" data-name="&lt;Trazado&gt;" d="M710.89,415.46a1.75,1.75,0,1,1-1.75-1.75A1.75,1.75,0,0,1,710.89,415.46Z" transform="translate(230.57 502.88)" style="fill:#fff"/><path id="_Trazado_48" data-name="&lt;Trazado&gt;" d="M710.89,425.89a1.75,1.75,0,1,1-1.75-1.74A1.75,1.75,0,0,1,710.89,425.89Z" transform="translate(230.57 502.88)" style="fill:#fff"/></g></g></g><g id="_Grupo_47" data-name="&lt;Grupo&gt;"><g id="_Grupo_48" data-name="&lt;Grupo&gt;"><g id="_Grupo_49" data-name="&lt;Grupo&gt;"><path id="_Trazado_49" data-name="&lt;Trazado&gt;" d="M735.44,270.15a1.75,1.75,0,1,1-1.75-1.74A1.75,1.75,0,0,1,735.44,270.15Z" transform="translate(230.57 502.88)" style="fill:#fff"/><path id="_Trazado_50" data-name="&lt;Trazado&gt;" d="M735.44,280.59a1.75,1.75,0,1,1-1.75-1.75A1.75,1.75,0,0,1,735.44,280.59Z" transform="translate(230.57 502.88)" style="fill:#fff"/><path id="_Trazado_51" data-name="&lt;Trazado&gt;" d="M735.44,291a1.75,1.75,0,1,1-1.75-1.75A1.75,1.75,0,0,1,735.44,291Z" transform="translate(230.57 502.88)" style="fill:#fff"/><path id="_Trazado_52" data-name="&lt;Trazado&gt;" d="M735.44,301.45a1.75,1.75,0,1,1-1.75-1.75A1.75,1.75,0,0,1,735.44,301.45Z" transform="translate(230.57 502.88)" style="fill:#fff"/><path id="_Trazado_53" data-name="&lt;Trazado&gt;" d="M735.44,311.88a1.75,1.75,0,1,1-1.75-1.75A1.76,1.76,0,0,1,735.44,311.88Z" transform="translate(230.57 502.88)" style="fill:#fff"/><path id="_Trazado_54" data-name="&lt;Trazado&gt;" d="M735.44,322.31a1.75,1.75,0,1,1-1.75-1.75A1.76,1.76,0,0,1,735.44,322.31Z" transform="translate(230.57 502.88)" style="fill:#fff"/><path id="_Trazado_55" data-name="&lt;Trazado&gt;" d="M735.44,332.74a1.75,1.75,0,1,1-1.75-1.75A1.75,1.75,0,0,1,735.44,332.74Z" transform="translate(230.57 502.88)" style="fill:#fff"/><path id="_Trazado_56" data-name="&lt;Trazado&gt;" d="M735.44,343.17a1.75,1.75,0,1,1-1.75-1.74A1.75,1.75,0,0,1,735.44,343.17Z" transform="translate(230.57 502.88)" style="fill:#fff"/></g></g><g id="_Grupo_50" data-name="&lt;Grupo&gt;"><g id="_Grupo_51" data-name="&lt;Grupo&gt;"><path id="_Trazado_57" data-name="&lt;Trazado&gt;" d="M735.44,352.87a1.75,1.75,0,1,1-1.75-1.74A1.75,1.75,0,0,1,735.44,352.87Z" transform="translate(230.57 502.88)" style="fill:#fff"/><path id="_Trazado_58" data-name="&lt;Trazado&gt;" d="M735.44,363.31a1.75,1.75,0,1,1-1.75-1.75A1.75,1.75,0,0,1,735.44,363.31Z" transform="translate(230.57 502.88)" style="fill:#fff"/><path id="_Trazado_59" data-name="&lt;Trazado&gt;" d="M735.44,373.74a1.75,1.75,0,1,1-1.75-1.75A1.75,1.75,0,0,1,735.44,373.74Z" transform="translate(230.57 502.88)" style="fill:#fff"/><path id="_Trazado_60" data-name="&lt;Trazado&gt;" d="M735.44,384.17a1.75,1.75,0,1,1-1.75-1.75A1.75,1.75,0,0,1,735.44,384.17Z" transform="translate(230.57 502.88)" style="fill:#fff"/><path id="_Trazado_61" data-name="&lt;Trazado&gt;" d="M735.44,394.6a1.75,1.75,0,1,1-1.75-1.75A1.75,1.75,0,0,1,735.44,394.6Z" transform="translate(230.57 502.88)" style="fill:#fff"/><path id="_Trazado_62" data-name="&lt;Trazado&gt;" d="M735.44,405a1.75,1.75,0,1,1-1.75-1.75A1.76,1.76,0,0,1,735.44,405Z" transform="translate(230.57 502.88)" style="fill:#fff"/><path id="_Trazado_63" data-name="&lt;Trazado&gt;" d="M735.44,415.46a1.75,1.75,0,1,1-1.75-1.75A1.75,1.75,0,0,1,735.44,415.46Z" transform="translate(230.57 502.88)" style="fill:#fff"/><path id="_Trazado_64" data-name="&lt;Trazado&gt;" d="M735.44,425.89a1.75,1.75,0,1,1-1.75-1.74A1.75,1.75,0,0,1,735.44,425.89Z" transform="translate(230.57 502.88)" style="fill:#fff"/></g></g></g><g id="_Grupo_52" data-name="&lt;Grupo&gt;"><g id="_Grupo_53" data-name="&lt;Grupo&gt;"><g id="_Grupo_54" data-name="&lt;Grupo&gt;"><path id="_Trazado_65" data-name="&lt;Trazado&gt;" d="M722.5,287.46a1.75,1.75,0,1,1-1.74-1.74A1.74,1.74,0,0,1,722.5,287.46Z" transform="translate(230.57 502.88)" style="fill:#fff"/><path id="_Trazado_66" data-name="&lt;Trazado&gt;" d="M722.5,297.9a1.75,1.75,0,1,1-1.74-1.75A1.74,1.74,0,0,1,722.5,297.9Z" transform="translate(230.57 502.88)" style="fill:#fff"/><path id="_Trazado_67" data-name="&lt;Trazado&gt;" d="M722.5,308.33a1.75,1.75,0,1,1-1.74-1.75A1.74,1.74,0,0,1,722.5,308.33Z" transform="translate(230.57 502.88)" style="fill:#fff"/><path id="_Trazado_68" data-name="&lt;Trazado&gt;" d="M722.5,318.76a1.75,1.75,0,1,1-1.74-1.75A1.74,1.74,0,0,1,722.5,318.76Z" transform="translate(230.57 502.88)" style="fill:#fff"/><path id="_Trazado_69" data-name="&lt;Trazado&gt;" d="M722.5,329.19a1.75,1.75,0,1,1-1.74-1.75A1.75,1.75,0,0,1,722.5,329.19Z" transform="translate(230.57 502.88)" style="fill:#fff"/><path id="_Trazado_70" data-name="&lt;Trazado&gt;" d="M722.5,339.62a1.75,1.75,0,1,1-1.74-1.75A1.75,1.75,0,0,1,722.5,339.62Z" transform="translate(230.57 502.88)" style="fill:#fff"/><path id="_Trazado_71" data-name="&lt;Trazado&gt;" d="M722.5,350.05a1.75,1.75,0,1,1-1.74-1.75A1.74,1.74,0,0,1,722.5,350.05Z" transform="translate(230.57 502.88)" style="fill:#fff"/><path id="_Trazado_72" data-name="&lt;Trazado&gt;" d="M722.5,360.48a1.75,1.75,0,1,1-1.74-1.74A1.74,1.74,0,0,1,722.5,360.48Z" transform="translate(230.57 502.88)" style="fill:#fff"/></g></g><g id="_Grupo_55" data-name="&lt;Grupo&gt;"><g id="_Grupo_56" data-name="&lt;Grupo&gt;"><path id="_Trazado_73" data-name="&lt;Trazado&gt;" d="M722.5,370.18a1.75,1.75,0,1,1-1.74-1.74A1.74,1.74,0,0,1,722.5,370.18Z" transform="translate(230.57 502.88)" style="fill:#fff"/><path id="_Trazado_74" data-name="&lt;Trazado&gt;" d="M722.5,380.62a1.75,1.75,0,1,1-1.74-1.75A1.74,1.74,0,0,1,722.5,380.62Z" transform="translate(230.57 502.88)" style="fill:#fff"/><path id="_Trazado_75" data-name="&lt;Trazado&gt;" d="M722.5,391.05a1.75,1.75,0,1,1-1.74-1.75A1.74,1.74,0,0,1,722.5,391.05Z" transform="translate(230.57 502.88)" style="fill:#fff"/><path id="_Trazado_76" data-name="&lt;Trazado&gt;" d="M722.5,401.48a1.75,1.75,0,1,1-1.74-1.75A1.74,1.74,0,0,1,722.5,401.48Z" transform="translate(230.57 502.88)" style="fill:#fff"/><path id="_Trazado_77" data-name="&lt;Trazado&gt;" d="M722.5,411.91a1.75,1.75,0,1,1-1.74-1.75A1.74,1.74,0,0,1,722.5,411.91Z" transform="translate(230.57 502.88)" style="fill:#fff"/><path id="_Trazado_78" data-name="&lt;Trazado&gt;" d="M722.5,422.34a1.75,1.75,0,1,1-1.74-1.75A1.75,1.75,0,0,1,722.5,422.34Z" transform="translate(230.57 502.88)" style="fill:#fff"/><path id="_Trazado_79" data-name="&lt;Trazado&gt;" d="M722.5,432.77a1.75,1.75,0,1,1-1.74-1.75A1.75,1.75,0,0,1,722.5,432.77Z" transform="translate(230.57 502.88)" style="fill:#fff"/><path id="_Trazado_80" data-name="&lt;Trazado&gt;" d="M722.5,443.2a1.75,1.75,0,1,1-1.74-1.75A1.74,1.74,0,0,1,722.5,443.2Z" transform="translate(230.57 502.88)" style="fill:#fff"/></g></g></g></g></g><g id="_Grupo_57" data-name="&lt;Grupo&gt;"><line id="_Trazado_81" data-name="&lt;Trazado&gt;" x1="756.57" y1="877.13" x2="765.82" y2="886.38" style="fill:none;stroke:#fff;stroke-linecap:round;stroke-linejoin:round;stroke-width:2px"/><line id="_Trazado_82" data-name="&lt;Trazado&gt;" x1="765.82" y1="877.13" x2="756.57" y2="886.38" style="fill:none;stroke:#fff;stroke-linecap:round;stroke-linejoin:round;stroke-width:2px"/></g><rect id="_Trazado_83" data-name="&lt;Trazado&gt;" x="230.57" y="502.88" width="750" height="500" style="fill:none"/><g id="_Grupo_58" data-name="&lt;Grupo&gt;"><rect id="_Rectángulo_9" data-name="&lt;Rectángulo&gt;" x="-82.29" y="-143.48" width="119.99" height="466.48" transform="translate(287.86 545.54) rotate(45.43)" style="fill:url(#Degradado_sin_nombre_26-9)"/><rect id="_Rectángulo_10" data-name="&lt;Rectángulo&gt;" x="-82.29" y="-143.48" width="119.99" height="466.48" transform="translate(287.86 545.54) rotate(45.43)" style="mix-blend-mode:multiply;fill:url(#Degradado_sin_nombre_26-9)"/></g><g id="_Recortar_grupo_3" data-name="&lt;Recortar grupo&gt;" style="opacity:0.5;mix-blend-mode:soft-light"><g style="clip-path:url(#clip-path-3)"><g id="_Grupo_59" data-name="&lt;Grupo&gt;"><g id="_Grupo_60" data-name="&lt;Grupo&gt;"><line id="_Trazado_84" data-name="&lt;Trazado&gt;" x1="237.09" y1="506.65" x2="407.83" y2="338.42" style="fill:none;stroke:#fff;stroke-miterlimit:10;stroke-width:2px"/><line id="_Trazado_85" data-name="&lt;Trazado&gt;" x1="254.63" y1="504.04" x2="425.37" y2="335.82" style="fill:none;stroke:#fff;stroke-miterlimit:10;stroke-width:2px"/><line id="_Trazado_86" data-name="&lt;Trazado&gt;" x1="253.04" y1="520.45" x2="423.79" y2="352.23" style="fill:none;stroke:#fff;stroke-miterlimit:10;stroke-width:2px"/></g><g id="_Grupo_61" data-name="&lt;Grupo&gt;"><line id="_Trazado_87" data-name="&lt;Trazado&gt;" x1="258.88" y1="530.74" x2="429.62" y2="362.52" style="fill:none;stroke:#fff;stroke-miterlimit:10;stroke-width:2px"/><line id="_Trazado_88" data-name="&lt;Trazado&gt;" x1="276.42" y1="528.13" x2="447.16" y2="359.91" style="fill:none;stroke:#fff;stroke-miterlimit:10;stroke-width:2px"/><line id="_Trazado_89" data-name="&lt;Trazado&gt;" x1="274.84" y1="544.55" x2="445.58" y2="376.32" style="fill:none;stroke:#fff;stroke-miterlimit:10;stroke-width:2px"/></g><g id="_Grupo_62" data-name="&lt;Grupo&gt;"><line id="_Trazado_90" data-name="&lt;Trazado&gt;" x1="280.67" y1="554.83" x2="451.42" y2="386.61" style="fill:none;stroke:#fff;stroke-miterlimit:10;stroke-width:2px"/><line id="_Trazado_91" data-name="&lt;Trazado&gt;" x1="298.21" y1="552.22" x2="468.95" y2="384" style="fill:none;stroke:#fff;stroke-miterlimit:10;stroke-width:2px"/><line id="_Trazado_92" data-name="&lt;Trazado&gt;" x1="296.63" y1="568.64" x2="467.37" y2="400.41" style="fill:none;stroke:#fff;stroke-miterlimit:10;stroke-width:2px"/></g><g id="_Grupo_63" data-name="&lt;Grupo&gt;"><line id="_Trazado_93" data-name="&lt;Trazado&gt;" x1="302.47" y1="578.92" x2="473.21" y2="410.7" style="fill:none;stroke:#fff;stroke-miterlimit:10;stroke-width:2px"/><line id="_Trazado_94" data-name="&lt;Trazado&gt;" x1="320" y1="576.32" x2="490.75" y2="408.09" style="fill:none;stroke:#fff;stroke-miterlimit:10;stroke-width:2px"/><line id="_Trazado_95" data-name="&lt;Trazado&gt;" x1="318.42" y1="592.73" x2="489.17" y2="424.51" style="fill:none;stroke:#fff;stroke-miterlimit:10;stroke-width:2px"/></g><g id="_Grupo_64" data-name="&lt;Grupo&gt;"><line id="_Trazado_96" data-name="&lt;Trazado&gt;" x1="324.26" y1="603.01" x2="495" y2="434.79" style="fill:none;stroke:#fff;stroke-miterlimit:10;stroke-width:2px"/><line id="_Trazado_97" data-name="&lt;Trazado&gt;" x1="341.8" y1="600.41" x2="512.54" y2="432.18" style="fill:none;stroke:#fff;stroke-miterlimit:10;stroke-width:2px"/><line id="_Trazado_98" data-name="&lt;Trazado&gt;" x1="340.22" y1="616.82" x2="510.96" y2="448.6" style="fill:none;stroke:#fff;stroke-miterlimit:10;stroke-width:2px"/></g><g id="_Grupo_65" data-name="&lt;Grupo&gt;"><line id="_Trazado_99" data-name="&lt;Trazado&gt;" x1="346.05" y1="627.11" x2="516.8" y2="458.88" style="fill:none;stroke:#fff;stroke-miterlimit:10;stroke-width:2px"/><line id="_Trazado_100" data-name="&lt;Trazado&gt;" x1="363.59" y1="624.5" x2="534.33" y2="456.28" style="fill:none;stroke:#fff;stroke-miterlimit:10;stroke-width:2px"/><line id="_Trazado_101" data-name="&lt;Trazado&gt;" x1="362.01" y1="640.91" x2="532.75" y2="472.69" style="fill:none;stroke:#fff;stroke-miterlimit:10;stroke-width:2px"/></g><g id="_Grupo_66" data-name="&lt;Grupo&gt;"><line id="_Trazado_102" data-name="&lt;Trazado&gt;" x1="367.85" y1="651.2" x2="538.59" y2="482.97" style="fill:none;stroke:#fff;stroke-miterlimit:10;stroke-width:2px"/><line id="_Trazado_103" data-name="&lt;Trazado&gt;" x1="385.38" y1="648.59" x2="556.13" y2="480.37" style="fill:none;stroke:#fff;stroke-miterlimit:10;stroke-width:2px"/><line id="_Trazado_104" data-name="&lt;Trazado&gt;" x1="383.8" y1="665.01" x2="554.55" y2="496.78" style="fill:none;stroke:#fff;stroke-miterlimit:10;stroke-width:2px"/></g><g id="_Grupo_67" data-name="&lt;Grupo&gt;"><line id="_Trazado_105" data-name="&lt;Trazado&gt;" x1="389.64" y1="675.29" x2="560.38" y2="507.07" style="fill:none;stroke:#fff;stroke-miterlimit:10;stroke-width:2px"/><line id="_Trazado_106" data-name="&lt;Trazado&gt;" x1="407.18" y1="672.68" x2="577.92" y2="504.46" style="fill:none;stroke:#fff;stroke-miterlimit:10;stroke-width:2px"/><line id="_Trazado_107" data-name="&lt;Trazado&gt;" x1="405.59" y1="689.1" x2="576.34" y2="520.87" style="fill:none;stroke:#fff;stroke-miterlimit:10;stroke-width:2px"/></g></g></g></g></g></g></g></g></g></g></svg>