<svg id="Capa_1" data-name="Capa 1" xmlns="http://www.w3.org/2000/svg" viewBox="0 0 360 202"><title>img-dummie360x202</title><rect width="360" height="202" style="fill:#cdcccc"/><path d="M111,75.23a6.32,6.32,0,0,1-.22,1.65,3.93,3.93,0,0,1-.69,1.37,3.4,3.4,0,0,1-1.24,1,5.12,5.12,0,0,1-3.72,0,3.4,3.4,0,0,1-1.24-1,3.93,3.93,0,0,1-.69-1.37,6.32,6.32,0,0,1-.21-1.65V68.66h1.26v6.39a5.55,5.55,0,0,0,.13,1.24,3.11,3.11,0,0,0,.45,1.07,2.23,2.23,0,0,0,.84.74,3.25,3.25,0,0,0,2.64,0,2.23,2.23,0,0,0,.84-.74,3.11,3.11,0,0,0,.45-1.07,5.54,5.54,0,0,0,.14-1.24V68.66H111Z" style="fill:#575756"/><path d="M117.25,73.25h-2.07v3.51c0,.23,0,.44,0,.64a1.37,1.37,0,0,0,.12.51.78.78,0,0,0,.31.34,1.11,1.11,0,0,0,.6.13,2.46,2.46,0,0,0,.53-.06,2.38,2.38,0,0,0,.51-.18l0,1.06a2.63,2.63,0,0,1-.67.2,4.2,4.2,0,0,1-.69.06,2.55,2.55,0,0,1-1-.17,1.27,1.27,0,0,1-.58-.46,1.68,1.68,0,0,1-.28-.74,6.07,6.07,0,0,1-.07-1V73.25h-1.53v-1H114v-2h1.17v2h2.07Z" style="fill:#575756"/><path d="M118.54,69.51a.82.82,0,0,1,.25-.6.79.79,0,0,1,.6-.25.81.81,0,0,1,.61.25.82.82,0,0,1,.25.6.82.82,0,0,1-.86.86.82.82,0,0,1-.61-.24A.84.84,0,0,1,118.54,69.51Zm.27,2.75H120v7h-1.17Z" style="fill:#575756"/><path d="M122.41,67.94h1.17V79.28h-1.17Z" style="fill:#575756"/><path d="M125.75,69.51a.86.86,0,0,1,.25-.6.87.87,0,0,1,1.22,0,.9.9,0,0,1,0,1.22.82.82,0,0,1-.61.24.82.82,0,0,1-.86-.86Zm.27,2.75h1.17v7H126Z" style="fill:#575756"/><path d="M134.51,74a2.42,2.42,0,0,0-.81-.65,2.32,2.32,0,0,0-1-.2,2.56,2.56,0,0,0-1,.2,2,2,0,0,0-.74.56,2.43,2.43,0,0,0-.45.84,3.29,3.29,0,0,0-.15,1,2.79,2.79,0,0,0,.18,1,2.35,2.35,0,0,0,.48.83,2.19,2.19,0,0,0,.74.57,2.34,2.34,0,0,0,1,.2,2.08,2.08,0,0,0,1.79-.87l.87.82a3.06,3.06,0,0,1-1.2.86,4,4,0,0,1-1.46.27,3.94,3.94,0,0,1-1.48-.27,3.28,3.28,0,0,1-1.15-.77,3.51,3.51,0,0,1-.73-1.17,4.16,4.16,0,0,1,0-3,3.38,3.38,0,0,1,.74-1.17,3.28,3.28,0,0,1,1.15-.77,3.67,3.67,0,0,1,1.47-.28,4.05,4.05,0,0,1,1.48.27,3.19,3.19,0,0,1,1.22.84Z" style="fill:#575756"/><path d="M143,78a3.63,3.63,0,0,1-1.38,1.14,4.46,4.46,0,0,1-1.74.32,3.74,3.74,0,0,1-1.49-.29,3.34,3.34,0,0,1-1.11-.79,3.46,3.46,0,0,1-.71-1.17,4.27,4.27,0,0,1-.25-1.44,4,4,0,0,1,.27-1.49,3.36,3.36,0,0,1,.75-1.17,3.31,3.31,0,0,1,1.14-.76,3.77,3.77,0,0,1,1.44-.27,3.49,3.49,0,0,1,1.35.25,2.78,2.78,0,0,1,1.06.72A3.14,3.14,0,0,1,143,74.2a4.67,4.67,0,0,1,.24,1.55v.38H137.6a2.54,2.54,0,0,0,.22.86,2.48,2.48,0,0,0,.49.72,2.16,2.16,0,0,0,1.59.67,2.59,2.59,0,0,0,2.23-1.07Zm-1-2.86a2,2,0,0,0-.58-1.44,2.1,2.1,0,0,0-1.53-.54,2.16,2.16,0,0,0-2.3,2Z" style="fill:#575756"/><path d="M155.38,77.61c0,.33,0,.62,0,.9s0,.54,0,.77h-1.11c0-.19,0-.38,0-.57s0-.39,0-.59h0a1.93,1.93,0,0,1-.34.5,2.48,2.48,0,0,1-.52.43,3.16,3.16,0,0,1-.67.3,3,3,0,0,1-.81.11,3.05,3.05,0,0,1-1.19-.21,2.13,2.13,0,0,1-.84-.59,2.23,2.23,0,0,1-.48-.9,4,4,0,0,1-.16-1.17V72.26h1.17v4.21a2.26,2.26,0,0,0,.39,1.4,1.42,1.42,0,0,0,1.21.51,2.33,2.33,0,0,0,1-.2,1.63,1.63,0,0,0,.67-.55,2.34,2.34,0,0,0,.39-.86,4.12,4.12,0,0,0,.13-1.09V72.26h1.17Z" style="fill:#575756"/><path d="M157.6,73.92q0-.48,0-.9c0-.27,0-.53,0-.76h1.11c0,.19,0,.38,0,.57s0,.38,0,.58h0a1.88,1.88,0,0,1,.34-.49,2.42,2.42,0,0,1,.51-.43,3.25,3.25,0,0,1,.68-.3,3,3,0,0,1,.81-.11,3.05,3.05,0,0,1,1.19.21,2.1,2.1,0,0,1,.83.59,2.24,2.24,0,0,1,.49.9,3.92,3.92,0,0,1,.16,1.16v4.34h-1.17V75.06a2.25,2.25,0,0,0-.39-1.39,1.44,1.44,0,0,0-1.22-.51,2.45,2.45,0,0,0-1,.19,1.74,1.74,0,0,0-.67.56,2.29,2.29,0,0,0-.39.85,4.2,4.2,0,0,0-.13,1.1v3.42H157.6Z" style="fill:#575756"/><path d="M165.85,73.16a3.39,3.39,0,0,1,1.28-.82,4.66,4.66,0,0,1,1.51-.26,3,3,0,0,1,2.25.73,3.18,3.18,0,0,1,.69,2.24v3c0,.21,0,.41,0,.63s0,.41.07.59h-1.12a2.83,2.83,0,0,1-.07-.53c0-.2,0-.37,0-.52h0a2.65,2.65,0,0,1-2.31,1.23,3.68,3.68,0,0,1-1-.14,2.6,2.6,0,0,1-.82-.39,1.91,1.91,0,0,1-.57-.66,1.86,1.86,0,0,1-.21-.89A2,2,0,0,1,166,76a2.89,2.89,0,0,1,1.12-.74,5.58,5.58,0,0,1,1.44-.3c.52,0,1-.06,1.42-.06h.45V74.7a1.41,1.41,0,0,0-.46-1.15,1.9,1.9,0,0,0-1.28-.39,3.34,3.34,0,0,0-1.12.19,2.79,2.79,0,0,0-1,.57Zm3.39,2.74a4.22,4.22,0,0,0-1.79.32,1.06,1.06,0,0,0-.66,1,1,1,0,0,0,.45.94,2,2,0,0,0,1.1.28,2.21,2.21,0,0,0,.89-.17,1.91,1.91,0,0,0,.64-.46,1.94,1.94,0,0,0,.39-.67,2.66,2.66,0,0,0,.15-.82V75.9Z" style="fill:#575756"/><path d="M177.73,69.51a.82.82,0,0,1,.25-.6.79.79,0,0,1,.6-.25.81.81,0,0,1,.61.25.82.82,0,0,1,.25.6.82.82,0,0,1-.86.86.82.82,0,0,1-.61-.24A.84.84,0,0,1,177.73,69.51Zm.27,2.75h1.17v7H178Z" style="fill:#575756"/><path d="M181.49,73.92q0-.48,0-.9c0-.27,0-.53,0-.76h1.11c0,.19,0,.38,0,.57s0,.38,0,.58h0a2.16,2.16,0,0,1,.34-.49,2.77,2.77,0,0,1,.52-.43,3.16,3.16,0,0,1,.67-.3,3,3,0,0,1,.81-.11,3,3,0,0,1,1,.14,2.35,2.35,0,0,1,.63.35,1.6,1.6,0,0,1,.4.43c.1.16.17.29.23.41a3.29,3.29,0,0,1,.9-1,2.31,2.31,0,0,1,1.32-.35,3.54,3.54,0,0,1,1.26.2,2,2,0,0,1,.83.59,2.25,2.25,0,0,1,.45.93,5.07,5.07,0,0,1,.13,1.22v4.26h-1.17v-4.2a3.2,3.2,0,0,0-.07-.7,1.65,1.65,0,0,0-.27-.62,1.54,1.54,0,0,0-.53-.44,1.88,1.88,0,0,0-.84-.16,1.66,1.66,0,0,0-.7.15,1.83,1.83,0,0,0-.58.42,2.2,2.2,0,0,0-.39.65,2.57,2.57,0,0,0-.14.85v4h-1.17v-4a3.16,3.16,0,0,0-.32-1.65,1.12,1.12,0,0,0-1-.49,2.41,2.41,0,0,0-1,.19,1.77,1.77,0,0,0-.68.56,2.66,2.66,0,0,0-.39.85,4.67,4.67,0,0,0-.13,1.1v3.42h-1.17Z" style="fill:#575756"/><path d="M194.18,73.16a3.35,3.35,0,0,1,1.29-.82,4.55,4.55,0,0,1,1.5-.26,3,3,0,0,1,2.25.73,3.18,3.18,0,0,1,.69,2.24v3c0,.21,0,.41,0,.63s.05.41.08.59h-1.13a2.2,2.2,0,0,1-.06-.53c0-.2,0-.37,0-.52h0a2.77,2.77,0,0,1-.92.88,2.68,2.68,0,0,1-1.39.35,3.62,3.62,0,0,1-1-.14,2.65,2.65,0,0,1-.83-.39,2,2,0,0,1-.56-.66,1.86,1.86,0,0,1-.21-.89,2,2,0,0,1,.45-1.37,2.82,2.82,0,0,1,1.12-.74,5.41,5.41,0,0,1,1.44-.3c.51,0,1-.06,1.41-.06h.45V74.7a1.43,1.43,0,0,0-.45-1.15,2,2,0,0,0-1.29-.39,3.24,3.24,0,0,0-1.11.19,2.71,2.71,0,0,0-1,.57Zm3.39,2.74a4.17,4.17,0,0,0-1.78.32,1.06,1.06,0,0,0-.66,1,1,1,0,0,0,.44.94,2,2,0,0,0,1.1.28,2.29,2.29,0,0,0,.9-.17,2,2,0,0,0,.63-.46,1.94,1.94,0,0,0,.39-.67,2.66,2.66,0,0,0,.15-.82V75.9Z" style="fill:#575756"/><path d="M209.06,79a4,4,0,0,1-1,2.92,3.78,3.78,0,0,1-2.84,1,5.52,5.52,0,0,1-1.87-.3,4.46,4.46,0,0,1-1.58-1l.84-1a4,4,0,0,0,1.18.91,3.1,3.1,0,0,0,1.43.31,3.29,3.29,0,0,0,1.3-.23,2.16,2.16,0,0,0,.81-.63,2.45,2.45,0,0,0,.42-.91,4.68,4.68,0,0,0,.12-1.07v-.9h0a2.53,2.53,0,0,1-1.09,1,3.24,3.24,0,0,1-1.38.32,4.15,4.15,0,0,1-1.52-.27,3.5,3.5,0,0,1-1.18-.75,3.33,3.33,0,0,1-.77-1.14,3.77,3.77,0,0,1-.27-1.44,4.27,4.27,0,0,1,.27-1.55,3.2,3.2,0,0,1,1.94-1.89,4.63,4.63,0,0,1,1.53-.25,3.53,3.53,0,0,1,.72.08,3.12,3.12,0,0,1,.7.26,2.53,2.53,0,0,1,.6.43,2.47,2.47,0,0,1,.45.61h0v-1.2h1.17Zm-6.15-3.19a2.52,2.52,0,0,0,.73,1.79,2.49,2.49,0,0,0,.79.53,2.23,2.23,0,0,0,1,.2,2.54,2.54,0,0,0,1.06-.21,2.35,2.35,0,0,0,1.28-1.37,3.06,3.06,0,0,0,0-2,2.37,2.37,0,0,0-.51-.82,2.16,2.16,0,0,0-.79-.53,2.61,2.61,0,0,0-1-.19,2.53,2.53,0,0,0-1,.2,2.23,2.23,0,0,0-.78.56,2.47,2.47,0,0,0-.51.82A2.9,2.9,0,0,0,202.91,75.77Z" style="fill:#575756"/><path d="M217.49,78a3.63,3.63,0,0,1-1.38,1.14,4.46,4.46,0,0,1-1.74.32,3.69,3.69,0,0,1-1.48-.29,3.49,3.49,0,0,1-1.12-.79,3.44,3.44,0,0,1-.7-1.17,4,4,0,0,1-.25-1.44,4,4,0,0,1,.27-1.49,3.36,3.36,0,0,1,.75-1.17,3.31,3.31,0,0,1,1.14-.76,3.77,3.77,0,0,1,1.44-.27,3.49,3.49,0,0,1,1.35.25,2.86,2.86,0,0,1,1.06.72,3.28,3.28,0,0,1,.68,1.15,4.67,4.67,0,0,1,.24,1.55v.38h-5.67a2.33,2.33,0,0,0,.22.86,2.27,2.27,0,0,0,.48.72,2.2,2.2,0,0,0,.71.49,2.13,2.13,0,0,0,.88.18,2.8,2.8,0,0,0,1.29-.27,2.84,2.84,0,0,0,1-.8Zm-1-2.86a2,2,0,0,0-.59-1.44,2.1,2.1,0,0,0-1.53-.54,2.16,2.16,0,0,0-2.29,2Z" style="fill:#575756"/><path d="M219.56,73.92q0-.48,0-.9c0-.27,0-.53,0-.76h1.11c0,.19,0,.38,0,.57s0,.38,0,.58h0a2.16,2.16,0,0,1,.34-.49,2.77,2.77,0,0,1,.52-.43,3.16,3.16,0,0,1,.67-.3,3,3,0,0,1,.81-.11,3.14,3.14,0,0,1,1.2.21,2.17,2.17,0,0,1,.83.59,2.37,2.37,0,0,1,.49.9,4.28,4.28,0,0,1,.15,1.16v4.34h-1.17V75.06a2.25,2.25,0,0,0-.39-1.39,1.42,1.42,0,0,0-1.21-.51,2.41,2.41,0,0,0-1,.19,1.77,1.77,0,0,0-.68.56,2.66,2.66,0,0,0-.39.85,4.67,4.67,0,0,0-.13,1.1v3.42h-1.17Z" style="fill:#575756"/><path d="M237.91,78h0a2.69,2.69,0,0,1-1,1,3.32,3.32,0,0,1-1.66.41,3.46,3.46,0,0,1-2.5-1,3.7,3.7,0,0,1-.74-1.17,4.14,4.14,0,0,1,0-2.94,3.56,3.56,0,0,1,.75-1.17,3.32,3.32,0,0,1,1.16-.77,3.9,3.9,0,0,1,1.51-.28,3,3,0,0,1,1.4.32,3.27,3.27,0,0,1,1.12.88h0V67.94h1.17V79.28h-1.17Zm0-2.26a3.13,3.13,0,0,0-.17-1,2.47,2.47,0,0,0-.51-.82,2.43,2.43,0,0,0-.78-.56,2.75,2.75,0,0,0-2.06,0,2.47,2.47,0,0,0-.79.56,2.44,2.44,0,0,0-.5.82,3.21,3.21,0,0,0,0,2.06,2.44,2.44,0,0,0,.5.82,2.47,2.47,0,0,0,.79.56,2.75,2.75,0,0,0,2.06,0,2.43,2.43,0,0,0,.78-.56,2.47,2.47,0,0,0,.51-.82A3.13,3.13,0,0,0,237.91,75.77Z" style="fill:#575756"/><path d="M247.51,78a3.63,3.63,0,0,1-1.38,1.14,4.46,4.46,0,0,1-1.74.32,3.74,3.74,0,0,1-1.49-.29,3.34,3.34,0,0,1-1.11-.79,3.46,3.46,0,0,1-.71-1.17,4.27,4.27,0,0,1-.25-1.44,4,4,0,0,1,.27-1.49,3.36,3.36,0,0,1,.75-1.17,3.31,3.31,0,0,1,1.14-.76,3.77,3.77,0,0,1,1.44-.27,3.49,3.49,0,0,1,1.35.25,2.78,2.78,0,0,1,1.06.72,3.14,3.14,0,0,1,.68,1.15,4.67,4.67,0,0,1,.24,1.55v.38h-5.67a2.54,2.54,0,0,0,.22.86,2.48,2.48,0,0,0,.49.72,2.16,2.16,0,0,0,1.59.67,2.59,2.59,0,0,0,2.23-1.07Zm-1-2.86a2,2,0,0,0-.58-1.44,2.1,2.1,0,0,0-1.53-.54,2.16,2.16,0,0,0-2.3,2Z" style="fill:#575756"/><path d="M61.69,91.16h.39a6,6,0,0,0,.82-.06,2.12,2.12,0,0,0,.78-.26,1.55,1.55,0,0,0,.58-.56,1.74,1.74,0,0,0,.24-1A1.66,1.66,0,0,0,64,88a1.84,1.84,0,0,0-1.31-.47,2.21,2.21,0,0,0-1.17.3,2,2,0,0,0-.78.88l-1.21-.46a2.68,2.68,0,0,1,1.22-1.35,3.81,3.81,0,0,1,1.85-.45,4.07,4.07,0,0,1,1.21.18,3.33,3.33,0,0,1,1,.52,2.56,2.56,0,0,1,.69.87,2.65,2.65,0,0,1,.26,1.2,2.42,2.42,0,0,1-.51,1.51,2.51,2.51,0,0,1-1.31.92v0a2.67,2.67,0,0,1,.91.33,2.79,2.79,0,0,1,.68.6,2.49,2.49,0,0,1,.44.8,3.15,3.15,0,0,1-.14,2.28,2.87,2.87,0,0,1-.76,1,3.31,3.31,0,0,1-1.12.58,4.57,4.57,0,0,1-1.34.2,4.14,4.14,0,0,1-2.12-.53,3,3,0,0,1-1.3-1.71l1.27-.42A2.28,2.28,0,0,0,61.23,96a2.66,2.66,0,0,0,2.22.21,2,2,0,0,0,.68-.43,2.11,2.11,0,0,0,.64-1.51,1.87,1.87,0,0,0-.24-1,1.84,1.84,0,0,0-.61-.63,3.29,3.29,0,0,0-.86-.34,4.59,4.59,0,0,0-1-.1h-.39Z" style="fill:#575756"/><path d="M70,91.08l0,0a2.06,2.06,0,0,1,.7-.23,3.25,3.25,0,0,1,.73-.08,3.43,3.43,0,0,1,1.28.24,3.09,3.09,0,0,1,1,.68,3.48,3.48,0,0,1,.67,1.06,3.68,3.68,0,0,1,.24,1.35,3.59,3.59,0,0,1-.27,1.39,3,3,0,0,1-.75,1,3.67,3.67,0,0,1-1.14.66,4.38,4.38,0,0,1-2.8,0,3.67,3.67,0,0,1-1.14-.66,3.24,3.24,0,0,1-.75-1,3.59,3.59,0,0,1-.26-1.39,4.21,4.21,0,0,1,.28-1.61,8.58,8.58,0,0,1,.72-1.37l2.82-4.49h1.47Zm1.11.8a2.44,2.44,0,0,0-.9.16,2,2,0,0,0-.73.45,2.12,2.12,0,0,0-.48.71,2.52,2.52,0,0,0,0,1.87,2.18,2.18,0,0,0,.48.7,2,2,0,0,0,.73.45,2.61,2.61,0,0,0,1.8,0,2,2,0,0,0,.73-.45,2.2,2.2,0,0,0,.49-.7,2.52,2.52,0,0,0,0-1.87,2.14,2.14,0,0,0-.49-.71A2,2,0,0,0,72,92,2.44,2.44,0,0,0,71.14,91.88Z" style="fill:#575756"/><path d="M75.88,92A12.5,12.5,0,0,1,76,90.09a5.83,5.83,0,0,1,.56-1.77A3.55,3.55,0,0,1,77.69,87a3.34,3.34,0,0,1,3.58,0,3.57,3.57,0,0,1,1.11,1.32,5.82,5.82,0,0,1,.55,1.77A12.5,12.5,0,0,1,83.08,92a12.27,12.27,0,0,1-.15,1.87,5.79,5.79,0,0,1-.55,1.78,3.57,3.57,0,0,1-1.11,1.32,3.34,3.34,0,0,1-3.58,0,3.55,3.55,0,0,1-1.1-1.32A5.8,5.8,0,0,1,76,93.84,12.27,12.27,0,0,1,75.88,92Zm1.26,0q0,.39,0,.87c0,.32.06.64.11,1a7.77,7.77,0,0,0,.24,1,3.33,3.33,0,0,0,.42.82,2.08,2.08,0,0,0,.64.58,2,2,0,0,0,1.8,0,2.08,2.08,0,0,0,.64-.58,3.33,3.33,0,0,0,.42-.82,7.77,7.77,0,0,0,.24-1c0-.33.09-.65.11-1s0-.61,0-.87,0-.55,0-.87-.06-.64-.11-1a7.77,7.77,0,0,0-.24-.95,3.4,3.4,0,0,0-.42-.83,2,2,0,0,0-.64-.57,2,2,0,0,0-1.8,0,2,2,0,0,0-.64.57,3.4,3.4,0,0,0-.42.83,7.77,7.77,0,0,0-.24.95c0,.33-.09.65-.11,1S77.14,91.71,77.14,92Z" style="fill:#575756"/><path d="M84.7,90.26h1.17v1h0A3.27,3.27,0,0,1,87,90.4a3,3,0,0,1,1.4-.32,3.9,3.9,0,0,1,1.51.28,3.32,3.32,0,0,1,1.16.77,3.56,3.56,0,0,1,.75,1.17,4.14,4.14,0,0,1,0,2.94,3.7,3.7,0,0,1-.74,1.17,3.53,3.53,0,0,1-4.16.64,2.69,2.69,0,0,1-1-1h0v4.67H84.7Zm1.17,3.51a3.13,3.13,0,0,0,.17,1,2.47,2.47,0,0,0,.51.82,2.43,2.43,0,0,0,.78.56,2.75,2.75,0,0,0,2.06,0,2.47,2.47,0,0,0,.79-.56,2.44,2.44,0,0,0,.5-.82,3.21,3.21,0,0,0,0-2.06,2.44,2.44,0,0,0-.5-.82,2.47,2.47,0,0,0-.79-.56,2.75,2.75,0,0,0-2.06,0,2.43,2.43,0,0,0-.78.56,2.47,2.47,0,0,0-.51.82A3.13,3.13,0,0,0,85.87,93.77Z" style="fill:#575756"/><path d="M95.74,93.5l-2.52-3.24h1.53l1.86,2.52,1.76-2.52h1.42L97.38,93.5l2.89,3.78H98.73l-2.22-3-2.19,3H92.86Z" style="fill:#575756"/><path d="M111.43,96h0a2.69,2.69,0,0,1-1,1,3.32,3.32,0,0,1-1.66.41,3.46,3.46,0,0,1-2.5-1,3.7,3.7,0,0,1-.74-1.17,4.14,4.14,0,0,1,0-2.94,3.56,3.56,0,0,1,.75-1.17,3.32,3.32,0,0,1,1.16-.77,3.9,3.9,0,0,1,1.51-.28,3,3,0,0,1,1.4.32,3.27,3.27,0,0,1,1.12.88h0V85.94h1.17V97.28h-1.17Zm0-2.26a3.13,3.13,0,0,0-.17-1,2.44,2.44,0,0,0-.5-.82,2.47,2.47,0,0,0-.79-.56,2.75,2.75,0,0,0-2.06,0,2.43,2.43,0,0,0-.78.56,2.47,2.47,0,0,0-.51.82,3.21,3.21,0,0,0,0,2.06,2.47,2.47,0,0,0,.51.82,2.43,2.43,0,0,0,.78.56,2.75,2.75,0,0,0,2.06,0,2.47,2.47,0,0,0,.79-.56,2.44,2.44,0,0,0,.5-.82A3.13,3.13,0,0,0,111.43,93.77Z" style="fill:#575756"/><path d="M121,96a3.63,3.63,0,0,1-1.38,1.14,4.46,4.46,0,0,1-1.74.32,3.74,3.74,0,0,1-1.49-.29,3.34,3.34,0,0,1-1.11-.79,3.46,3.46,0,0,1-.71-1.17,4.27,4.27,0,0,1-.25-1.44,4,4,0,0,1,.27-1.49,3.25,3.25,0,0,1,.76-1.17,3.13,3.13,0,0,1,1.14-.76,3.73,3.73,0,0,1,1.44-.27,3.47,3.47,0,0,1,1.34.25,2.78,2.78,0,0,1,1.06.72A3.14,3.14,0,0,1,121,92.2a4.67,4.67,0,0,1,.24,1.55v.38h-5.67a2.54,2.54,0,0,0,.22.86,2.48,2.48,0,0,0,.49.72,2.16,2.16,0,0,0,1.59.67,2.8,2.8,0,0,0,1.29-.27,2.94,2.94,0,0,0,1-.8Zm-1-2.86a2,2,0,0,0-.58-1.44,2.1,2.1,0,0,0-1.53-.54,2.28,2.28,0,0,0-1.58.54,2.32,2.32,0,0,0-.72,1.44Z" style="fill:#575756"/><path d="M127.18,91.16a3.39,3.39,0,0,1,1.28-.82,4.66,4.66,0,0,1,1.51-.26,3,3,0,0,1,2.25.73,3.18,3.18,0,0,1,.69,2.24v3c0,.21,0,.41,0,.63s.05.41.08.59h-1.13a2.83,2.83,0,0,1-.07-.53c0-.2,0-.37,0-.52h0a2.71,2.71,0,0,1-.93.88,2.62,2.62,0,0,1-1.38.35,3.75,3.75,0,0,1-1-.14,2.6,2.6,0,0,1-.82-.39,1.78,1.78,0,0,1-.56-.66,1.86,1.86,0,0,1-.21-.89,2,2,0,0,1,.44-1.37,3,3,0,0,1,1.12-.74,5.58,5.58,0,0,1,1.44-.3c.52,0,1-.06,1.42-.06h.45V92.7a1.41,1.41,0,0,0-.46-1.15,1.9,1.9,0,0,0-1.28-.39,3.34,3.34,0,0,0-1.12.19,2.66,2.66,0,0,0-1,.57Zm3.39,2.74a4.17,4.17,0,0,0-1.78.32,1.07,1.07,0,0,0-.67,1,1,1,0,0,0,.45.94,2,2,0,0,0,1.1.28,2.21,2.21,0,0,0,.89-.17,1.91,1.91,0,0,0,.64-.46,1.94,1.94,0,0,0,.39-.67,2.66,2.66,0,0,0,.15-.82V93.9Z" style="fill:#575756"/><path d="M135.06,91.92q0-.48,0-.9c0-.27,0-.53,0-.76h1.11c0,.19,0,.38,0,.57s0,.38,0,.58h0a2.11,2.11,0,0,1,.33-.49,2.77,2.77,0,0,1,.52-.43,3.25,3.25,0,0,1,.68-.3,3,3,0,0,1,.81-.11,3.09,3.09,0,0,1,1.19.21,2.17,2.17,0,0,1,.83.59,2.37,2.37,0,0,1,.49.9,4.28,4.28,0,0,1,.16,1.16v4.34H140V93.06a2.25,2.25,0,0,0-.39-1.39,1.45,1.45,0,0,0-1.22-.51,2.41,2.41,0,0,0-1,.19,1.77,1.77,0,0,0-.68.56,2.66,2.66,0,0,0-.39.85,4.69,4.69,0,0,0-.12,1.1v3.42h-1.17Z" style="fill:#575756"/><path d="M148.39,92a2.42,2.42,0,0,0-.81-.65,2.32,2.32,0,0,0-1-.2,2.64,2.64,0,0,0-1,.2,2.17,2.17,0,0,0-.74.56,2.59,2.59,0,0,0-.44.84,3.29,3.29,0,0,0-.15,1,3,3,0,0,0,.17,1,2.7,2.7,0,0,0,.48.83,2.23,2.23,0,0,0,.75.57,2.34,2.34,0,0,0,1,.2,2.08,2.08,0,0,0,1.79-.87l.87.82a3.06,3.06,0,0,1-1.2.86,4,4,0,0,1-1.46.27,3.9,3.9,0,0,1-1.48-.27,3.19,3.19,0,0,1-1.15-.77,3.53,3.53,0,0,1-.74-1.17,4.31,4.31,0,0,1,0-3,3.41,3.41,0,0,1,.75-1.17,3.24,3.24,0,0,1,1.14-.77,3.75,3.75,0,0,1,1.48-.28,4.09,4.09,0,0,1,1.48.27,3.26,3.26,0,0,1,1.22.84Z" style="fill:#575756"/><path d="M150.62,85.94h1.17v5.29h0a2,2,0,0,1,.33-.41,2.24,2.24,0,0,1,.5-.37,3,3,0,0,1,.65-.27,2.76,2.76,0,0,1,.77-.1,3.09,3.09,0,0,1,1.19.21,2.17,2.17,0,0,1,.83.59,2.37,2.37,0,0,1,.49.9,4.28,4.28,0,0,1,.16,1.16v4.34h-1.17V93.06a2.32,2.32,0,0,0-.39-1.39,1.45,1.45,0,0,0-1.22-.51,2.41,2.41,0,0,0-1,.19,1.77,1.77,0,0,0-.68.56,2.66,2.66,0,0,0-.39.85,4.67,4.67,0,0,0-.13,1.1v3.42h-1.17Z" style="fill:#575756"/><path d="M158.56,93.77a3.65,3.65,0,0,1,.29-1.5,3.32,3.32,0,0,1,.77-1.16,3.51,3.51,0,0,1,1.19-.76,4.3,4.3,0,0,1,3,0,3.42,3.42,0,0,1,1.19.76,3.46,3.46,0,0,1,.77,1.16,4,4,0,0,1,0,3,3.46,3.46,0,0,1-.77,1.16,3.42,3.42,0,0,1-1.19.76,4.3,4.3,0,0,1-3,0,3.51,3.51,0,0,1-1.19-.76,3.32,3.32,0,0,1-.77-1.16A3.65,3.65,0,0,1,158.56,93.77Zm1.26,0a3.13,3.13,0,0,0,.17,1,2.47,2.47,0,0,0,1.29,1.38,2.75,2.75,0,0,0,2.06,0,2.43,2.43,0,0,0,.78-.56,2.47,2.47,0,0,0,.51-.82,3.21,3.21,0,0,0,0-2.06,2.47,2.47,0,0,0-.51-.82,2.43,2.43,0,0,0-.78-.56,2.75,2.75,0,0,0-2.06,0A2.47,2.47,0,0,0,160,92.74,3.13,3.13,0,0,0,159.82,93.77Z" style="fill:#575756"/><path d="M172,90.26h1.18v1h0a3.23,3.23,0,0,1,1.11-.88,3,3,0,0,1,1.41-.32,3.85,3.85,0,0,1,1.5.28,3.36,3.36,0,0,1,1.17.77,4,4,0,0,1,.74,4.11,3.53,3.53,0,0,1-.74,1.17,3.31,3.31,0,0,1-1.11.77,3.41,3.41,0,0,1-1.38.28,3.27,3.27,0,0,1-1.66-.41,2.56,2.56,0,0,1-1-1h0v4.67H172Zm1.18,3.51a2.89,2.89,0,0,0,.17,1,2.29,2.29,0,0,0,.5.82,2.36,2.36,0,0,0,.79.56,2.73,2.73,0,0,0,2,0,2.36,2.36,0,0,0,.79-.56,2.29,2.29,0,0,0,.5-.82,3,3,0,0,0,0-2.06,2.29,2.29,0,0,0-.5-.82,2.36,2.36,0,0,0-.79-.56,2.73,2.73,0,0,0-2,0,2.36,2.36,0,0,0-.79.56,2.29,2.29,0,0,0-.5.82A2.89,2.89,0,0,0,173.16,93.77Z" style="fill:#575756"/><path d="M180.8,93.77a3.82,3.82,0,0,1,.29-1.5,3.49,3.49,0,0,1,.78-1.16,3.38,3.38,0,0,1,1.18-.76,4.3,4.3,0,0,1,3,0,3.42,3.42,0,0,1,1.19.76,3.49,3.49,0,0,1,.78,1.16,4.16,4.16,0,0,1,0,3,3.49,3.49,0,0,1-.78,1.16,3.42,3.42,0,0,1-1.19.76,4.3,4.3,0,0,1-3,0,3.38,3.38,0,0,1-1.18-.76,3.49,3.49,0,0,1-.78-1.16A3.82,3.82,0,0,1,180.8,93.77Zm1.26,0a2.9,2.9,0,0,0,.18,1,2.29,2.29,0,0,0,.5.82,2.36,2.36,0,0,0,.79.56,2.54,2.54,0,0,0,1,.2,2.59,2.59,0,0,0,1-.2,2.36,2.36,0,0,0,.79-.56,2.29,2.29,0,0,0,.5-.82,3.21,3.21,0,0,0,0-2.06,2.29,2.29,0,0,0-.5-.82,2.36,2.36,0,0,0-.79-.56,2.59,2.59,0,0,0-1-.2,2.54,2.54,0,0,0-1,.2,2.36,2.36,0,0,0-.79.56,2.29,2.29,0,0,0-.5.82A2.9,2.9,0,0,0,182.06,93.77Z" style="fill:#575756"/><path d="M190.12,91.92q0-.48,0-.9c0-.27,0-.53,0-.76h1.11c0,.19,0,.38,0,.57a5.52,5.52,0,0,1,0,.58h0a1.88,1.88,0,0,1,.34-.49,2.42,2.42,0,0,1,.51-.43,3.5,3.5,0,0,1,.68-.3,3,3,0,0,1,.81-.11h.24a1.05,1.05,0,0,1,.24.06L194,91.34a2.18,2.18,0,0,0-.63-.09,1.75,1.75,0,0,0-1.56.7,3.23,3.23,0,0,0-.49,1.91v3.42h-1.17Z" style="fill:#575756"/><path d="M199.21,95.84l4-3.9c.25-.24.47-.46.67-.67a4.92,4.92,0,0,0,.47-.6,2.37,2.37,0,0,0,.27-.61,2.53,2.53,0,0,0,.09-.7,1.65,1.65,0,0,0-.15-.75,1.54,1.54,0,0,0-.41-.56,1.7,1.7,0,0,0-.61-.36,2.13,2.13,0,0,0-.76-.13,2,2,0,0,0-1.34.46,2.13,2.13,0,0,0-.67,1.23l-1.37-.12a3.43,3.43,0,0,1,.4-1.14,2.85,2.85,0,0,1,.74-.84,3.6,3.6,0,0,1,1-.5,4.07,4.07,0,0,1,1.19-.17,3.94,3.94,0,0,1,1.25.19,3.07,3.07,0,0,1,1,.54,2.6,2.6,0,0,1,.7.9,2.77,2.77,0,0,1,.26,1.25,3.41,3.41,0,0,1-.17,1.14,3.91,3.91,0,0,1-.46.94,8.35,8.35,0,0,1-.66.81l-.78.75-3.27,3.08v0h5.42v1.17h-6.84Z" style="fill:#575756"/><path d="M207.37,92a12.5,12.5,0,0,1,.15-1.88,5.82,5.82,0,0,1,.55-1.77A3.57,3.57,0,0,1,209.18,87a3.34,3.34,0,0,1,3.58,0,3.55,3.55,0,0,1,1.1,1.32,5.83,5.83,0,0,1,.56,1.77,12.5,12.5,0,0,1,.15,1.88,12.27,12.27,0,0,1-.15,1.87,5.8,5.8,0,0,1-.56,1.78,3.55,3.55,0,0,1-1.1,1.32,3.34,3.34,0,0,1-3.58,0,3.57,3.57,0,0,1-1.11-1.32,5.79,5.79,0,0,1-.55-1.78A12.27,12.27,0,0,1,207.37,92Zm1.26,0q0,.39,0,.87c0,.32.06.64.11,1a7.77,7.77,0,0,0,.24,1,3.33,3.33,0,0,0,.42.82,2.08,2.08,0,0,0,.64.58,2,2,0,0,0,1.8,0,2.08,2.08,0,0,0,.64-.58,3.33,3.33,0,0,0,.42-.82,7.77,7.77,0,0,0,.24-1c.05-.33.09-.65.11-1s0-.61,0-.87,0-.55,0-.87-.06-.64-.11-1a7.77,7.77,0,0,0-.24-.95,3.4,3.4,0,0,0-.42-.83,2,2,0,0,0-.64-.57,2,2,0,0,0-1.8,0,2,2,0,0,0-.64.57,3.4,3.4,0,0,0-.42.83,7.77,7.77,0,0,0-.24.95c-.05.33-.09.65-.11,1S208.63,91.71,208.63,92Z" style="fill:#575756"/><path d="M215.89,95.84l4-3.9c.25-.24.48-.46.66-.67a3.6,3.6,0,0,0,.48-.6,2.07,2.07,0,0,0,.27-.61,2.2,2.2,0,0,0,.09-.7,2,2,0,0,0-.14-.75,1.8,1.8,0,0,0-1-.92,2.13,2.13,0,0,0-.76-.13,2,2,0,0,0-1.34.46,2.13,2.13,0,0,0-.67,1.23l-1.37-.12a3.43,3.43,0,0,1,.4-1.14,2.85,2.85,0,0,1,.74-.84,3.54,3.54,0,0,1,1-.5,4.21,4.21,0,0,1,1.21-.17,3.92,3.92,0,0,1,1.24.19,3.07,3.07,0,0,1,1,.54,2.6,2.6,0,0,1,.7.9,2.77,2.77,0,0,1,.27,1.25,3.41,3.41,0,0,1-.18,1.14,3.91,3.91,0,0,1-.46.94,8.35,8.35,0,0,1-.66.81l-.78.75-3.27,3.08v0h5.42v1.17h-6.84Z" style="fill:#575756"/><path d="M224.53,90.26h1.17v1h0a3.27,3.27,0,0,1,1.12-.88,3,3,0,0,1,1.4-.32,3.9,3.9,0,0,1,1.51.28,3.32,3.32,0,0,1,1.16.77,3.56,3.56,0,0,1,.75,1.17,4.14,4.14,0,0,1,0,2.94,3.7,3.7,0,0,1-.74,1.17,3.53,3.53,0,0,1-4.16.64,2.69,2.69,0,0,1-1-1h0v4.67h-1.17Zm1.17,3.51a3.13,3.13,0,0,0,.17,1,2.47,2.47,0,0,0,1.29,1.38,2.75,2.75,0,0,0,2.06,0,2.43,2.43,0,0,0,.78-.56,2.47,2.47,0,0,0,.51-.82,3.21,3.21,0,0,0,0-2.06,2.47,2.47,0,0,0-.51-.82,2.43,2.43,0,0,0-.78-.56,2.75,2.75,0,0,0-2.06,0,2.47,2.47,0,0,0-1.29,1.38A3.13,3.13,0,0,0,225.7,93.77Z" style="fill:#575756"/><path d="M235.57,93.5l-2.52-3.24h1.53l1.86,2.52,1.75-2.52h1.43l-2.41,3.24,2.89,3.78h-1.55l-2.22-3-2.19,3h-1.45Z" style="fill:#575756"/><path d="M251.26,96h0a2.69,2.69,0,0,1-1,1,3.32,3.32,0,0,1-1.66.41,3.46,3.46,0,0,1-2.5-1,3.7,3.7,0,0,1-.74-1.17,4.14,4.14,0,0,1,0-2.94,3.56,3.56,0,0,1,.75-1.17,3.32,3.32,0,0,1,1.16-.77,3.9,3.9,0,0,1,1.51-.28,3,3,0,0,1,1.4.32,3.27,3.27,0,0,1,1.12.88h0V85.94h1.17V97.28h-1.17Zm0-2.26a3.13,3.13,0,0,0-.17-1,2.47,2.47,0,0,0-.51-.82,2.43,2.43,0,0,0-.78-.56,2.75,2.75,0,0,0-2.06,0,2.47,2.47,0,0,0-1.29,1.38,3.21,3.21,0,0,0,0,2.06,2.47,2.47,0,0,0,1.29,1.38,2.75,2.75,0,0,0,2.06,0,2.43,2.43,0,0,0,.78-.56,2.47,2.47,0,0,0,.51-.82A3.13,3.13,0,0,0,251.26,93.77Z" style="fill:#575756"/><path d="M260.86,96a3.63,3.63,0,0,1-1.38,1.14,4.46,4.46,0,0,1-1.74.32,3.74,3.74,0,0,1-1.49-.29,3.34,3.34,0,0,1-1.11-.79,3.46,3.46,0,0,1-.71-1.17,4.27,4.27,0,0,1-.25-1.44,3.8,3.8,0,0,1,.28-1.49,3.1,3.1,0,0,1,.75-1.17,3.17,3.17,0,0,1,1.13-.76,3.78,3.78,0,0,1,1.45-.27,3.47,3.47,0,0,1,1.34.25,2.78,2.78,0,0,1,1.06.72,3.3,3.3,0,0,1,.69,1.15,5,5,0,0,1,.23,1.55v.38h-5.67a2.54,2.54,0,0,0,.22.86,2.48,2.48,0,0,0,.49.72,2.16,2.16,0,0,0,1.59.67A2.59,2.59,0,0,0,260,95.31Zm-1-2.86a2,2,0,0,0-.58-1.44,2.1,2.1,0,0,0-1.53-.54,2.18,2.18,0,0,0-2.3,2Z" style="fill:#575756"/><path d="M267,91.16a3.39,3.39,0,0,1,1.28-.82,4.66,4.66,0,0,1,1.51-.26,3,3,0,0,1,2.25.73,3.18,3.18,0,0,1,.69,2.24v3c0,.21,0,.41,0,.63s0,.41.07.59h-1.12a2.83,2.83,0,0,1-.07-.53c0-.2,0-.37,0-.52h0a2.65,2.65,0,0,1-2.31,1.23,3.68,3.68,0,0,1-1-.14,2.6,2.6,0,0,1-.82-.39,1.91,1.91,0,0,1-.57-.66,1.86,1.86,0,0,1-.21-.89,2,2,0,0,1,.45-1.37,2.89,2.89,0,0,1,1.12-.74,5.58,5.58,0,0,1,1.44-.3c.52,0,1-.06,1.42-.06h.45V92.7a1.41,1.41,0,0,0-.46-1.15,1.9,1.9,0,0,0-1.28-.39,3.34,3.34,0,0,0-1.12.19,2.79,2.79,0,0,0-1,.57Zm3.39,2.74a4.22,4.22,0,0,0-1.79.32,1.06,1.06,0,0,0-.66,1,1,1,0,0,0,.45.94,2,2,0,0,0,1.1.28,2.21,2.21,0,0,0,.89-.17,1.91,1.91,0,0,0,.64-.46,1.94,1.94,0,0,0,.39-.67,2.66,2.66,0,0,0,.15-.82V93.9Z" style="fill:#575756"/><path d="M275,85.94h1.17V97.28H275Z" style="fill:#575756"/><path d="M282.34,91.25h-2.07v3.51c0,.23,0,.44,0,.64a1.37,1.37,0,0,0,.12.51.81.81,0,0,0,.32.34,1.11,1.11,0,0,0,.6.13,2.37,2.37,0,0,0,.52-.06,2.21,2.21,0,0,0,.51-.18l0,1.06a2.63,2.63,0,0,1-.67.2,4.32,4.32,0,0,1-.7.06,2.5,2.5,0,0,1-1-.17,1.3,1.3,0,0,1-.59-.46,1.68,1.68,0,0,1-.27-.74,6.07,6.07,0,0,1-.07-1V91.25h-1.53v-1h1.53v-2h1.17v2h2.07Z" style="fill:#575756"/><path d="M283.37,93.77a3.82,3.82,0,0,1,.29-1.5,3.49,3.49,0,0,1,.78-1.16,3.38,3.38,0,0,1,1.18-.76,4.3,4.3,0,0,1,3,0,3.42,3.42,0,0,1,1.19.76,3.49,3.49,0,0,1,.78,1.16,4.16,4.16,0,0,1,0,3,3.49,3.49,0,0,1-.78,1.16,3.42,3.42,0,0,1-1.19.76,4.3,4.3,0,0,1-3,0,3.38,3.38,0,0,1-1.18-.76,3.49,3.49,0,0,1-.78-1.16A3.82,3.82,0,0,1,283.37,93.77Zm1.26,0a2.9,2.9,0,0,0,.18,1,2.29,2.29,0,0,0,.5.82,2.36,2.36,0,0,0,.79.56,2.54,2.54,0,0,0,1,.2,2.59,2.59,0,0,0,1-.2,2.36,2.36,0,0,0,.79-.56,2.29,2.29,0,0,0,.5-.82,3.21,3.21,0,0,0,0-2.06,2.29,2.29,0,0,0-.5-.82,2.36,2.36,0,0,0-.79-.56,2.59,2.59,0,0,0-1-.2,2.54,2.54,0,0,0-1,.2,2.36,2.36,0,0,0-.79.56,2.29,2.29,0,0,0-.5.82A2.9,2.9,0,0,0,284.63,93.77Z" style="fill:#575756"/><path d="M108.13,114a3.63,3.63,0,0,1-1.38,1.14,4.46,4.46,0,0,1-1.74.32,3.74,3.74,0,0,1-1.49-.29,3.34,3.34,0,0,1-1.11-.79,3.46,3.46,0,0,1-.71-1.17,4.27,4.27,0,0,1-.24-1.44,3.8,3.8,0,0,1,.27-1.49,3.37,3.37,0,0,1,1.89-1.93,3.73,3.73,0,0,1,1.44-.27,3.47,3.47,0,0,1,1.34.25,2.78,2.78,0,0,1,1.06.72,3.3,3.3,0,0,1,.69,1.15,5,5,0,0,1,.23,1.55v.38h-5.67a2.54,2.54,0,0,0,.22.86,2.48,2.48,0,0,0,.49.72,2.16,2.16,0,0,0,.7.49,2.21,2.21,0,0,0,.89.18,2.8,2.8,0,0,0,1.29-.27,3,3,0,0,0,1-.79Zm-1-2.86a2,2,0,0,0-.58-1.44,2.1,2.1,0,0,0-1.53-.54,2.23,2.23,0,0,0-1.57.54,2.28,2.28,0,0,0-.73,1.44Z" style="fill:#575756"/><path d="M110.2,109.92c0-.31,0-.62,0-.89s0-.54,0-.77h1.11c0,.19,0,.38,0,.57s0,.38,0,.59h0a1.93,1.93,0,0,1,.34-.5,2.25,2.25,0,0,1,.52-.43,3,3,0,0,1,.67-.3,3,3,0,0,1,.81-.11,3.05,3.05,0,0,1,1.19.21,2.1,2.1,0,0,1,.83.59,2.24,2.24,0,0,1,.49.9,4,4,0,0,1,.16,1.17v4.33h-1.17v-4.21a2.26,2.26,0,0,0-.39-1.4,1.44,1.44,0,0,0-1.22-.51,2.28,2.28,0,0,0-1,.2,1.71,1.71,0,0,0-.67.55,2.29,2.29,0,0,0-.39.85,4.2,4.2,0,0,0-.13,1.1v3.42H110.2Z" style="fill:#575756"/><path d="M123.31,109.25h-1.53v-1h1.53v-1.58a5.26,5.26,0,0,1,.12-1.17,2.47,2.47,0,0,1,.41-.93,2,2,0,0,1,.78-.6,2.76,2.76,0,0,1,1.18-.22,4.23,4.23,0,0,1,.48,0,1.38,1.38,0,0,1,.42.14l-.16,1a2.44,2.44,0,0,0-.8-.15,1.27,1.27,0,0,0-.7.16,1,1,0,0,0-.39.43,2.13,2.13,0,0,0-.15.67c0,.26,0,.54,0,.84v1.32h1.71v1h-1.71v6h-1.17Z" style="fill:#575756"/><path d="M127,111.77a3.82,3.82,0,0,1,.28-1.5,3.49,3.49,0,0,1,.78-1.16,3.42,3.42,0,0,1,1.19-.76,4.3,4.3,0,0,1,3,0,3.38,3.38,0,0,1,1.18.76,3.49,3.49,0,0,1,.78,1.16,4,4,0,0,1,0,3,3.49,3.49,0,0,1-.78,1.16,3.38,3.38,0,0,1-1.18.76,4.3,4.3,0,0,1-3,0,3.42,3.42,0,0,1-1.19-.76,3.49,3.49,0,0,1-.78-1.16A3.82,3.82,0,0,1,127,111.77Zm1.26,0a3.13,3.13,0,0,0,.17,1,2.44,2.44,0,0,0,.5.82,2.47,2.47,0,0,0,.79.56,2.75,2.75,0,0,0,2.06,0,2.43,2.43,0,0,0,.78-.56,2.47,2.47,0,0,0,.51-.82,3.21,3.21,0,0,0,0-2.06,2.47,2.47,0,0,0-.51-.82,2.43,2.43,0,0,0-.78-.56,2.75,2.75,0,0,0-2.06,0,2.47,2.47,0,0,0-.79.56,2.44,2.44,0,0,0-.5.82A3.13,3.13,0,0,0,128.29,111.77Z" style="fill:#575756"/><path d="M136.34,109.92c0-.31,0-.62,0-.89s0-.54,0-.77h1.12c0,.19,0,.38,0,.57s0,.38,0,.59h0a1.88,1.88,0,0,1,.33-.5,2.77,2.77,0,0,1,.52-.43,3.16,3.16,0,0,1,.67-.3,3,3,0,0,1,.81-.11H140a1.09,1.09,0,0,1,.24.07l-.07,1.18a2.18,2.18,0,0,0-.63-.09,1.78,1.78,0,0,0-1.57.7,3.31,3.31,0,0,0-.49,1.91v3.42h-1.17Z" style="fill:#575756"/><path d="M141.62,109.92c0-.31,0-.62,0-.89s0-.54,0-.77h1.11c0,.19,0,.38,0,.57s0,.38,0,.59h0a2.21,2.21,0,0,1,.34-.5,2.77,2.77,0,0,1,.52-.43,3.16,3.16,0,0,1,.67-.3,3,3,0,0,1,.81-.11,3,3,0,0,1,1,.14,2.35,2.35,0,0,1,.63.35,1.6,1.6,0,0,1,.4.43,3.68,3.68,0,0,1,.23.42,3.34,3.34,0,0,1,.9-1,2.31,2.31,0,0,1,1.32-.35,3.54,3.54,0,0,1,1.26.2,2,2,0,0,1,.83.59,2.25,2.25,0,0,1,.45.93,5.07,5.07,0,0,1,.13,1.22v4.26H151v-4.2a3.26,3.26,0,0,0-.07-.7,1.65,1.65,0,0,0-.27-.62,1.42,1.42,0,0,0-.53-.43,1.75,1.75,0,0,0-.84-.17,1.66,1.66,0,0,0-.7.15,1.83,1.83,0,0,0-.58.42,2.2,2.2,0,0,0-.39.65,2.57,2.57,0,0,0-.14.85v4h-1.17v-4a3.18,3.18,0,0,0-.32-1.65,1.12,1.12,0,0,0-1-.49,2.25,2.25,0,0,0-1,.2,1.75,1.75,0,0,0-.68.55,2.66,2.66,0,0,0-.39.85,4.67,4.67,0,0,0-.13,1.1v3.42h-1.17Z" style="fill:#575756"/><path d="M154.31,109.16a3.35,3.35,0,0,1,1.29-.82,4.55,4.55,0,0,1,1.5-.26,3,3,0,0,1,2.25.74,3.14,3.14,0,0,1,.69,2.23v3c0,.2,0,.4,0,.62s.05.41.08.59H159a2.2,2.2,0,0,1-.06-.53c0-.2,0-.37,0-.52h0a2.9,2.9,0,0,1-.92.89,2.78,2.78,0,0,1-1.39.34,3.63,3.63,0,0,1-1-.13,2.67,2.67,0,0,1-.83-.4,2.06,2.06,0,0,1-.56-.65,1.93,1.93,0,0,1-.21-.9,2,2,0,0,1,.45-1.37,2.7,2.7,0,0,1,1.12-.73A5.41,5.41,0,0,1,157,111c.51,0,1,0,1.41,0h.45v-.21a1.46,1.46,0,0,0-.45-1.16,2,2,0,0,0-1.29-.39,3.24,3.24,0,0,0-1.11.19,2.71,2.71,0,0,0-1,.57Zm3.39,2.75a4.18,4.18,0,0,0-1.78.31,1.07,1.07,0,0,0-.66,1,1,1,0,0,0,.44.94,2,2,0,0,0,1.1.28,2.29,2.29,0,0,0,.9-.17,2,2,0,0,0,.63-.46,1.94,1.94,0,0,0,.39-.67,2.65,2.65,0,0,0,.15-.81v-.45Z" style="fill:#575756"/><path d="M166,109.25H164v3.51c0,.23,0,.44,0,.64a1.37,1.37,0,0,0,.12.51.81.81,0,0,0,.32.34,1.11,1.11,0,0,0,.6.13,2.37,2.37,0,0,0,.52-.06,2.21,2.21,0,0,0,.51-.18l.05,1.07a3.11,3.11,0,0,1-.67.19,4.32,4.32,0,0,1-.7.06,2.34,2.34,0,0,1-1-.17,1.3,1.3,0,0,1-.59-.46,1.68,1.68,0,0,1-.27-.74,6,6,0,0,1-.07-1v-3.86h-1.53v-1h1.53v-2H164v2H166Z" style="fill:#575756"/><path d="M167.06,111.77a3.82,3.82,0,0,1,.29-1.5,3.49,3.49,0,0,1,.78-1.16,3.38,3.38,0,0,1,1.18-.76,4.3,4.3,0,0,1,3,0,3.42,3.42,0,0,1,1.19.76,3.49,3.49,0,0,1,.78,1.16,4.16,4.16,0,0,1,0,3,3.49,3.49,0,0,1-.78,1.16,3.42,3.42,0,0,1-1.19.76,4.3,4.3,0,0,1-3,0,3.38,3.38,0,0,1-1.18-.76,3.49,3.49,0,0,1-.78-1.16A3.82,3.82,0,0,1,167.06,111.77Zm1.26,0a2.9,2.9,0,0,0,.18,1,2.29,2.29,0,0,0,.5.82,2.36,2.36,0,0,0,.79.56,2.54,2.54,0,0,0,1,.2,2.59,2.59,0,0,0,1-.2,2.36,2.36,0,0,0,.79-.56,2.29,2.29,0,0,0,.5-.82,3.21,3.21,0,0,0,0-2.06,2.29,2.29,0,0,0-.5-.82,2.36,2.36,0,0,0-.79-.56,2.59,2.59,0,0,0-1-.2,2.54,2.54,0,0,0-1,.2,2.36,2.36,0,0,0-.79.56,2.29,2.29,0,0,0-.5.82A2.9,2.9,0,0,0,168.32,111.77Z" style="fill:#575756"/><path d="M181.52,113.57a.88.88,0,0,1,.64.26.86.86,0,0,1,.26.64.87.87,0,0,1-.27.64.93.93,0,0,1-.63.26.91.91,0,0,1-.62-.26.88.88,0,0,1-.28-.64.87.87,0,0,1,.27-.64A.86.86,0,0,1,181.52,113.57Z" style="fill:#575756"/><path d="M186,116.86a2.51,2.51,0,0,1-.08.62,1.81,1.81,0,0,1-.31.66,1.83,1.83,0,0,1-.63.52,2.22,2.22,0,0,1-1.06.22,2.73,2.73,0,0,1-.41,0,1.42,1.42,0,0,1-.4-.12l.13-1a1.88,1.88,0,0,0,.57.09,1.08,1.08,0,0,0,.54-.12.84.84,0,0,0,.3-.32,1.59,1.59,0,0,0,.15-.48,5,5,0,0,0,0-.56v-8.06H186Zm-1.44-11.35a.86.86,0,0,1,1.47-.59.82.82,0,0,1,.24.59.84.84,0,0,1-.24.62.82.82,0,0,1-.61.24.82.82,0,0,1-.86-.86Z" style="fill:#575756"/><path d="M188.26,108.26h1.17v1h0a3.39,3.39,0,0,1,1.12-.88,3,3,0,0,1,1.4-.32,3.9,3.9,0,0,1,1.51.28,3.32,3.32,0,0,1,1.16.77,3.56,3.56,0,0,1,.75,1.17,4.14,4.14,0,0,1,0,2.94,3.7,3.7,0,0,1-.74,1.17,3.53,3.53,0,0,1-4.16.64,2.73,2.73,0,0,1-1-1h0v4.66h-1.17Zm1.17,3.51a3.13,3.13,0,0,0,.17,1,2.44,2.44,0,0,0,.5.82,2.47,2.47,0,0,0,.79.56,2.75,2.75,0,0,0,2.06,0,2.43,2.43,0,0,0,.78-.56,2.47,2.47,0,0,0,.51-.82,3.21,3.21,0,0,0,0-2.06,2.47,2.47,0,0,0-.51-.82,2.43,2.43,0,0,0-.78-.56,2.75,2.75,0,0,0-2.06,0,2.47,2.47,0,0,0-.79.56,2.44,2.44,0,0,0-.5.82A3.13,3.13,0,0,0,189.43,111.77Z" style="fill:#575756"/><path d="M204.49,115a4,4,0,0,1-1,2.92,3.82,3.82,0,0,1-2.85,1,5.42,5.42,0,0,1-1.86-.3,4.28,4.28,0,0,1-1.59-1l.84-1a3.91,3.91,0,0,0,1.18.91,3.13,3.13,0,0,0,1.43.31,3.25,3.25,0,0,0,1.3-.23,2.12,2.12,0,0,0,.82-.63,2.45,2.45,0,0,0,.42-.91,4.68,4.68,0,0,0,.12-1.07v-.89h0a2.59,2.59,0,0,1-1.1,1,3.24,3.24,0,0,1-1.38.32,4.1,4.1,0,0,1-1.51-.27,3.55,3.55,0,0,1-1.19-.75,3.31,3.31,0,0,1-.76-1.14,3.77,3.77,0,0,1-.27-1.44,4.27,4.27,0,0,1,.27-1.55,3.22,3.22,0,0,1,1.93-1.89,4.63,4.63,0,0,1,1.53-.25,3.53,3.53,0,0,1,.72.08,3,3,0,0,1,.7.26,2.4,2.4,0,0,1,.61.43,2.47,2.47,0,0,1,.45.61h0v-1.2h1.17Zm-6.15-3.19a2.54,2.54,0,0,0,.19,1,2.41,2.41,0,0,0,.54.79,2.35,2.35,0,0,0,.78.53,2.23,2.23,0,0,0,1,.2,2.59,2.59,0,0,0,1.07-.21,2.51,2.51,0,0,0,.79-.56,2.56,2.56,0,0,0,.48-.81,3,3,0,0,0,0-2,2.37,2.37,0,0,0-.51-.82,2.2,2.2,0,0,0-.8-.53,2.61,2.61,0,0,0-1-.19,2.56,2.56,0,0,0-1,.2,2.43,2.43,0,0,0-.78.56,2.62,2.62,0,0,0-.5.82A2.9,2.9,0,0,0,198.34,111.77Z" style="fill:#575756"/><path d="M210.41,111.77a3.82,3.82,0,0,1,.29-1.5,3.49,3.49,0,0,1,.78-1.16,3.38,3.38,0,0,1,1.18-.76,4.3,4.3,0,0,1,3,0,3.42,3.42,0,0,1,1.19.76,3.49,3.49,0,0,1,.78,1.16,4.16,4.16,0,0,1,0,3,3.49,3.49,0,0,1-.78,1.16,3.42,3.42,0,0,1-1.19.76,4.3,4.3,0,0,1-3,0,3.38,3.38,0,0,1-1.18-.76,3.49,3.49,0,0,1-.78-1.16A3.82,3.82,0,0,1,210.41,111.77Zm1.26,0a2.9,2.9,0,0,0,.18,1,2.29,2.29,0,0,0,.5.82,2.36,2.36,0,0,0,.79.56,2.54,2.54,0,0,0,1,.2,2.59,2.59,0,0,0,1-.2,2.36,2.36,0,0,0,.79-.56,2.29,2.29,0,0,0,.5-.82,3.21,3.21,0,0,0,0-2.06,2.29,2.29,0,0,0-.5-.82,2.36,2.36,0,0,0-.79-.56,2.59,2.59,0,0,0-1-.2,2.54,2.54,0,0,0-1,.2,2.36,2.36,0,0,0-.79.56,2.29,2.29,0,0,0-.5.82A2.9,2.9,0,0,0,211.67,111.77Z" style="fill:#575756"/><path d="M224.87,113.57a.88.88,0,0,1,.64.26.86.86,0,0,1,.26.64.87.87,0,0,1-.27.64.93.93,0,0,1-.63.26.91.91,0,0,1-.62-.26.88.88,0,0,1-.28-.64.87.87,0,0,1,.27-.64A.86.86,0,0,1,224.87,113.57Z" style="fill:#575756"/><path d="M228,108.26h1.17v1h0a3.39,3.39,0,0,1,1.12-.88,3,3,0,0,1,1.4-.32,3.9,3.9,0,0,1,1.51.28,3.32,3.32,0,0,1,1.16.77,3.56,3.56,0,0,1,.75,1.17,4.14,4.14,0,0,1,0,2.94,3.7,3.7,0,0,1-.74,1.17,3.53,3.53,0,0,1-4.16.64,2.73,2.73,0,0,1-1-1h0v4.66H228Zm1.17,3.51a3.13,3.13,0,0,0,.17,1,2.44,2.44,0,0,0,.5.82,2.47,2.47,0,0,0,.79.56,2.75,2.75,0,0,0,2.06,0,2.43,2.43,0,0,0,.78-.56,2.47,2.47,0,0,0,.51-.82,3.21,3.21,0,0,0,0-2.06,2.47,2.47,0,0,0-.51-.82,2.43,2.43,0,0,0-.78-.56,2.75,2.75,0,0,0-2.06,0,2.47,2.47,0,0,0-.79.56,2.44,2.44,0,0,0-.5.82A3.13,3.13,0,0,0,229.18,111.77Z" style="fill:#575756"/><path d="M237.23,109.92c0-.31,0-.62,0-.89s0-.54,0-.77h1.11c0,.19,0,.38,0,.57s0,.38,0,.59h0a2.21,2.21,0,0,1,.34-.5,2.77,2.77,0,0,1,.52-.43,3.16,3.16,0,0,1,.67-.3,3,3,0,0,1,.81-.11,3.14,3.14,0,0,1,1.2.21,2.17,2.17,0,0,1,.83.59,2.37,2.37,0,0,1,.49.9,4.36,4.36,0,0,1,.15,1.17v4.33h-1.17v-4.21a2.26,2.26,0,0,0-.39-1.4,1.42,1.42,0,0,0-1.21-.51,2.25,2.25,0,0,0-1,.2,1.75,1.75,0,0,0-.68.55,2.66,2.66,0,0,0-.39.85,4.67,4.67,0,0,0-.13,1.1v3.42h-1.17Z" style="fill:#575756"/><path d="M252.58,115a4,4,0,0,1-1,2.92,3.82,3.82,0,0,1-2.85,1,5.42,5.42,0,0,1-1.86-.3,4.28,4.28,0,0,1-1.59-1l.84-1a3.91,3.91,0,0,0,1.18.91,3.13,3.13,0,0,0,1.43.31,3.25,3.25,0,0,0,1.3-.23,2.12,2.12,0,0,0,.82-.63,2.45,2.45,0,0,0,.42-.91,4.68,4.68,0,0,0,.12-1.07v-.89h0a2.59,2.59,0,0,1-1.1,1,3.24,3.24,0,0,1-1.38.32,4.1,4.1,0,0,1-1.51-.27,3.55,3.55,0,0,1-1.19-.75,3.31,3.31,0,0,1-.76-1.14,3.77,3.77,0,0,1-.27-1.44,4.27,4.27,0,0,1,.27-1.55,3.22,3.22,0,0,1,1.93-1.89,4.63,4.63,0,0,1,1.53-.25,3.53,3.53,0,0,1,.72.08,3,3,0,0,1,.7.26,2.4,2.4,0,0,1,.61.43,2.47,2.47,0,0,1,.45.61h0v-1.2h1.17Zm-6.15-3.19a2.54,2.54,0,0,0,.19,1,2.41,2.41,0,0,0,.54.79,2.35,2.35,0,0,0,.78.53,2.23,2.23,0,0,0,1,.2,2.59,2.59,0,0,0,1.07-.21,2.51,2.51,0,0,0,.79-.56,2.56,2.56,0,0,0,.48-.81,3,3,0,0,0,0-2,2.37,2.37,0,0,0-.51-.82,2.2,2.2,0,0,0-.8-.53,2.61,2.61,0,0,0-1-.19,2.56,2.56,0,0,0-1,.2,2.43,2.43,0,0,0-.78.56,2.62,2.62,0,0,0-.5.82A2.9,2.9,0,0,0,246.43,111.77Z" style="fill:#575756"/></svg>