<?xml version="1.0" encoding="utf-8"?>
<!-- Generator: Adobe Illustrator 22.1.0, SVG Export Plug-In . SVG Version: 6.00 Build 0)  -->
<svg version="1.1" xmlns="http://www.w3.org/2000/svg" xmlns:xlink="http://www.w3.org/1999/xlink" x="0px" y="0px"
	 viewBox="0 0 200 150" style="enable-background:new 0 0 200 150;" xml:space="preserve">
<style type="text/css">
	.st0{fill:#D8D8D8;}
	.st1{fill:#FFFFFF;}
	.st2{fill:#BCBCBC;}
	.st3{fill:#A5A5A5;}
	.st4{fill:#5867DD;}
</style>
<g id="Bg">
	<polygon class="st0" points="27.3,100.7 41.9,100.7 54.9,20.5 40.1,20.5 	"/>
	<polygon class="st1" points="56,100.7 70.6,100.7 83.7,20.5 68.8,20.5 	"/>
	<polygon class="st2" points="122.6,100.7 108,100.7 95,20.5 109.8,20.5 	"/>
	<polygon class="st3" points="96.7,100.7 82.1,100.7 69,20.5 83.9,20.5 	"/>
	<polygon class="st0" points="82,100.7 96.6,100.7 109.7,20.5 94.8,20.5 	"/>
	<polygon class="st0" points="56,100.7 70.6,100.7 83.7,20.5 68.8,20.5 	"/>
	<g>
		<path class="st4" d="M39.1,126.5c0.9,0.6,2.4,1.2,3.9,1.2c2.1,0,3.1-1.1,3.1-2.4c0-1.4-0.8-2.2-3-3c-2.9-1-4.3-2.6-4.3-4.6
			c0-2.6,2.1-4.8,5.6-4.8c1.6,0,3.1,0.5,4,1l-0.7,2.1c-0.6-0.4-1.8-0.9-3.3-0.9c-1.7,0-2.7,1-2.7,2.2c0,1.3,1,1.9,3.1,2.7
			c2.8,1.1,4.3,2.5,4.3,4.9c0,2.8-2.2,4.9-6.1,4.9c-1.8,0-3.4-0.4-4.6-1.1L39.1,126.5z"/>
		<path class="st4" d="M67.5,121.2c0,6-4.2,8.6-8.1,8.6c-4.4,0-7.8-3.2-7.8-8.3c0-5.4,3.6-8.6,8-8.6
			C64.3,112.9,67.5,116.3,67.5,121.2z M54.6,121.4c0,3.5,2,6.2,4.9,6.2c2.8,0,4.9-2.6,4.9-6.3c0-2.7-1.4-6.2-4.9-6.2
			S54.6,118.3,54.6,121.4z"/>
		<path class="st4" d="M71.2,105.7h2.9v23.8h-2.9V105.7z"/>
		<path class="st4" d="M92.7,125.1c0,1.7,0,3.1,0.1,4.4h-2.6l-0.2-2.6H90c-0.8,1.3-2.5,3-5.4,3c-2.5,0-5.6-1.4-5.6-7.1v-9.5H82v9
			c0,3.1,0.9,5.2,3.6,5.2c2,0,3.3-1.4,3.9-2.7c0.2-0.4,0.3-1,0.3-1.5v-9.9h2.9V125.1z"/>
		<path class="st4" d="M101.1,108.6v4.7h4.2v2.2h-4.2v8.7c0,2,0.6,3.1,2.2,3.1c0.8,0,1.3-0.1,1.7-0.2l0.1,2.2
			c-0.6,0.2-1.5,0.4-2.6,0.4c-1.4,0-2.5-0.4-3.2-1.2c-0.8-0.9-1.1-2.3-1.1-4.2v-8.8h-2.5v-2.2h2.5v-3.9L101.1,108.6z"/>
		<path class="st4" d="M111.9,108.7c0,1-0.7,1.8-1.9,1.8c-1,0-1.8-0.8-1.8-1.8c0-1,0.8-1.8,1.8-1.8
			C111.2,106.9,111.9,107.7,111.9,108.7z M108.7,129.5v-16.2h2.9v16.2H108.7z"/>
		<path class="st4" d="M131.2,121.2c0,6-4.2,8.6-8.1,8.6c-4.4,0-7.8-3.2-7.8-8.3c0-5.4,3.5-8.6,8-8.6
			C128,112.9,131.2,116.3,131.2,121.2z M118.3,121.4c0,3.5,2,6.2,4.9,6.2c2.8,0,4.9-2.6,4.9-6.3c0-2.7-1.4-6.2-4.9-6.2
			S118.3,118.3,118.3,121.4z"/>
		<path class="st4" d="M134.9,117.7c0-1.7,0-3-0.1-4.4h2.6l0.2,2.7h0.1c0.8-1.5,2.7-3,5.4-3c2.2,0,5.7,1.3,5.7,6.9v9.7h-2.9v-9.3
			c0-2.6-1-4.8-3.8-4.8c-1.9,0-3.5,1.4-4,3c-0.1,0.4-0.2,0.9-0.2,1.4v9.7h-2.9V117.7z"/>
	</g>
</g>
<g id="Shadow">
</g>
<g id="Object">
	<polygon class="st2" points="126.3,101 128.7,87.4 149.7,87.4 147.7,101.1 	"/>
	<polygon class="st3" points="129,73.8 142.1,73.8 163.2,51.4 150.3,51.4 	"/>
	<polygon class="st3" points="142.4,33.1 146.6,20.5 167.3,20.7 166,33.4 	"/>
	<polygon class="st0" points="149.7,20.5 136.7,20.5 129,73.8 142.1,73.8 	"/>
	<polygon class="st0" points="143.1,101.1 156.1,101.1 163.2,51.4 150.3,51.4 	"/>
</g>
</svg>
