<?xml version="1.0" encoding="utf-8"?>
<!-- Generator: Adobe Illustrator 22.1.0, SVG Export Plug-In . SVG Version: 6.00 Build 0)  -->
<svg version="1.1" xmlns="http://www.w3.org/2000/svg" xmlns:xlink="http://www.w3.org/1999/xlink" x="0px" y="0px"
	 viewBox="0 0 86.4 65.7" style="enable-background:new 0 0 86.4 65.7;" xml:space="preserve">
<style type="text/css">
	.st0{fill:#D8D8D8;}
	.st1{fill:#FFFFFF;}
	.st2{fill:#EFEFEE;}
	.st3{fill:#FAFCFC;}
</style>
<g id="Bg">
	<polygon class="st0" points="57.5,48.1 59.5,39.4 73.8,39.4 72.1,48.2 	"/>
	<polygon class="st0" points="59.7,32.1 68.5,32.1 82.8,17.7 74.1,17.7 	"/>
	<polygon class="st0" points="68.6,8.8 72.2,0.2 86.4,0.2 84.8,9 	"/>
	<polygon class="st1" points="0,48.2 8.8,48.2 16.6,0.1 7.7,0.1 	"/>
	<polygon class="st1" points="16.3,48.2 25,48.2 32.8,0.1 23.9,0.1 	"/>
	<polygon class="st2" points="56.2,48.2 47.5,48.2 39.6,0.1 48.5,0.1 	"/>
	<polygon class="st0" points="40.6,48.2 31.9,48.2 24,0.1 32.9,0.1 	"/>
	<polygon class="st1" points="31.8,48.2 40.6,48.2 48.4,0.1 39.5,0.1 	"/>
	<polygon class="st1" points="16.3,48.2 25,48.2 32.8,0.1 23.9,0.1 	"/>
	<g>
		<path class="st3" d="M7.1,63.7c0.5,0.3,1.4,0.7,2.3,0.7c1.3,0,1.9-0.6,1.9-1.4c0-0.8-0.5-1.3-1.8-1.8C7.8,60.5,7,59.5,7,58.4
			c0-1.6,1.3-2.9,3.4-2.9c1,0,1.8,0.3,2.4,0.6l-0.4,1.3c-0.4-0.2-1.1-0.6-2-0.6c-1,0-1.6,0.6-1.6,1.3c0,0.8,0.6,1.2,1.8,1.6
			c1.7,0.6,2.6,1.5,2.6,2.9c0,1.7-1.3,2.9-3.6,2.9c-1.1,0-2-0.3-2.7-0.7L7.1,63.7z"/>
		<path class="st3" d="M24.1,60.5c0,3.6-2.5,5.2-4.8,5.2c-2.6,0-4.7-1.9-4.7-5c0-3.3,2.1-5.2,4.8-5.2C22.2,55.5,24.1,57.6,24.1,60.5
			z M16.4,60.6c0,2.1,1.2,3.7,3,3.7c1.7,0,3-1.6,3-3.8c0-1.6-0.8-3.7-2.9-3.7S16.4,58.8,16.4,60.6z"/>
		<path class="st3" d="M26.4,51.2h1.8v14.3h-1.8V51.2z"/>
		<path class="st3" d="M39.2,62.8c0,1,0,1.9,0.1,2.7h-1.6l-0.1-1.6h0c-0.5,0.8-1.5,1.8-3.2,1.8c-1.5,0-3.4-0.8-3.4-4.3v-5.7h1.8v5.4
			c0,1.8,0.6,3.1,2.2,3.1c1.2,0,2-0.8,2.3-1.6c0.1-0.3,0.2-0.6,0.2-0.9v-6h1.8V62.8z"/>
		<path class="st3" d="M44.3,53v2.8h2.5v1.3h-2.5v5.2c0,1.2,0.3,1.9,1.3,1.9c0.5,0,0.8-0.1,1-0.1l0.1,1.3c-0.3,0.1-0.9,0.2-1.6,0.2
			c-0.8,0-1.5-0.3-1.9-0.7c-0.5-0.5-0.7-1.4-0.7-2.5v-5.3h-1.5v-1.3h1.5v-2.3L44.3,53z"/>
		<path class="st3" d="M50.8,53c0,0.6-0.4,1.1-1.1,1.1c-0.6,0-1.1-0.5-1.1-1.1c0-0.6,0.5-1.1,1.1-1.1C50.4,51.9,50.8,52.4,50.8,53z
			 M48.8,65.5v-9.7h1.8v9.7H48.8z"/>
		<path class="st3" d="M62.3,60.5c0,3.6-2.5,5.2-4.8,5.2c-2.6,0-4.7-1.9-4.7-5c0-3.3,2.1-5.2,4.8-5.2C60.4,55.5,62.3,57.6,62.3,60.5
			z M54.6,60.6c0,2.1,1.2,3.7,3,3.7c1.7,0,3-1.6,3-3.8c0-1.6-0.8-3.7-2.9-3.7S54.6,58.8,54.6,60.6z"/>
		<path class="st3" d="M64.6,58.4c0-1,0-1.8-0.1-2.6h1.6l0.1,1.6h0c0.5-0.9,1.6-1.8,3.2-1.8c1.3,0,3.4,0.8,3.4,4.1v5.8h-1.8v-5.6
			c0-1.6-0.6-2.9-2.3-2.9c-1.2,0-2.1,0.8-2.4,1.8c-0.1,0.2-0.1,0.5-0.1,0.8v5.8h-1.8V58.4z"/>
	</g>
	<polygon class="st1" points="73.7,0 64.9,0 59.7,32.1 68.5,32.1 	"/>
	<polygon class="st1" points="69.2,48.2 78,48.2 82.8,17.7 74.1,17.7 	"/>
</g>
<g id="Shadow">
</g>
<g id="Object">
</g>
</svg>
