<?xml version="1.0" encoding="utf-8"?>
<!-- Generator: Adobe Illustrator 22.1.0, SVG Export Plug-In . SVG Version: 6.00 Build 0)  -->
<svg version="1.1" id="Capa_1" xmlns="http://www.w3.org/2000/svg" xmlns:xlink="http://www.w3.org/1999/xlink" x="0px" y="0px"
	 viewBox="0 0 200 100" style="enable-background:new 0 0 200 100;" xml:space="preserve">
<style type="text/css">
	.st0{fill:#40586F;}
	.st1{fill:#219AB5;}
</style>
<path class="st0" d="M104.2,58.7l1.6,0c-0.4,0.2-1.1,0.1-1.6,0.1V58.7L104.2,58.7z M103.7,58.6c0.1-0.1,0.5,0.2,0.2,0.1
	C103.9,58.6,103.6,58.8,103.7,58.6z M99.8,57.5C99.8,57.5,99.8,57.6,99.8,57.5C99.8,57.6,99.8,57.6,99.8,57.5
	C99.8,57.6,99.6,57.7,99.8,57.5z M99.3,57.4C99.4,57.4,99.4,57.4,99.3,57.4C99.4,57.4,99.4,57.5,99.3,57.4
	C99.4,57.4,99.1,57.6,99.3,57.4z M98.9,57.2c0.1-0.1,0.5,0.2,0.2,0.1C99.1,57.3,98.7,57.4,98.9,57.2z M103.5,57.1
	C103.5,57.1,103.5,57.1,103.5,57.1C103.5,57.2,103.5,57.2,103.5,57.1C103.5,57.2,103.3,57.3,103.5,57.1z M98.5,57.1l0.3,0.1
	L98.5,57.1z M102.7,57.1l-0.4,0C102.4,57.1,102.2,56.8,102.7,57.1z M101.7,56.8c0.1-0.1,0.5,0.2,0.2,0.1
	C101.9,56.9,101.5,57,101.7,56.8z M110.2,56.7c0.1-0.1,0.5,0.2,0.2,0.1C110.4,56.7,110,56.9,110.2,56.7z M101,56.7
	c0.1-0.1,0.5,0.2,0.2,0.1C101.1,56.7,100.8,56.9,101,56.7z M110.8,56.5C110.8,56.5,110.8,56.5,110.8,56.5
	C110.8,56.6,110.9,56.6,110.8,56.5C110.9,56.6,110.6,56.7,110.8,56.5z M111.4,56.4C111.4,56.4,111.4,56.4,111.4,56.4
	C111.4,56.4,111.4,56.4,111.4,56.4C111.4,56.4,111.2,56.6,111.4,56.4z M99.9,56.4c0.1-0.1,0.5,0.2,0.2,0.1
	C100.1,56.5,99.7,56.6,99.9,56.4z M110.5,56.4c0.3-0.2,0.1-0.3,0.6,0L110.5,56.4z M111.2,56.1C111.2,56.1,111.3,56.1,111.2,56.1
	C111.3,56.1,111.3,56.1,111.2,56.1C111.3,56.1,111,56.3,111.2,56.1z M99.2,56.1C99.2,56.1,99.2,56.1,99.2,56.1
	C99.2,56.1,99.3,56.1,99.2,56.1C99.3,56.1,99,56.3,99.2,56.1z M109.8,56.1c0.3-0.2,0.1-0.3,0.6,0L109.8,56.1z M98.8,55.9l0.3,0.1
	L98.8,55.9z M110.5,55.8C110.5,55.8,110.6,55.8,110.5,55.8C110.6,55.8,110.6,55.9,110.5,55.8C110.6,55.8,110.3,56,110.5,55.8z
	 M103.2,55.8l-0.4,0.1C102.9,55.8,102.5,55.8,103.2,55.8z M98.8,55.9l-0.3-0.1L98.8,55.9z M102.1,55.6
	C102.2,55.6,102.2,55.7,102.1,55.6C102.2,55.7,102.2,55.7,102.1,55.6C102.2,55.7,101.9,55.8,102.1,55.6z M98.5,55.8l-0.3-0.1
	L98.5,55.8z M101.7,55.5C101.7,55.5,101.7,55.5,101.7,55.5C101.7,55.6,101.8,55.6,101.7,55.5C101.8,55.6,101.5,55.7,101.7,55.5z
	 M101.1,55.4C101.1,55.3,101.2,55.4,101.1,55.4C101.2,55.4,101.2,55.4,101.1,55.4C101.2,55.4,100.9,55.6,101.1,55.4z M112.4,54.8
	C112.4,54.8,112.5,54.8,112.4,54.8C112.5,54.8,112.5,54.8,112.4,54.8C112.5,54.8,112.2,55,112.4,54.8z M112.7,54.6
	C112.7,54.6,112.8,54.6,112.7,54.6C112.8,54.7,112.8,54.7,112.7,54.6C112.8,54.7,112.5,54.8,112.7,54.6z M113,54.5
	C113,54.5,113,54.5,113,54.5C113,54.5,113.1,54.5,113,54.5C113.1,54.5,112.8,54.7,113,54.5z M113.6,54.3l-0.3,0.2L113.6,54.3z
	 M113.9,54.2l-0.3,0.1L113.9,54.2z M113.9,54.2l0-0.1l0.1,0.1L113.9,54.2L113.9,54.2z M114.3,53.9l0,0.1l-0.1-0.1L114.3,53.9
	L114.3,53.9z M114.6,53.7l-0.3,0.1L114.6,53.7z M114.9,53.6l-0.3,0.1L114.9,53.6z M115.1,53.5l-0.1,0.1L115.1,53.5z M115.1,53.5
	c0.2-0.3,0.5-0.5,0.9-0.6C115.6,53.3,115.6,53.3,115.1,53.5z M98.5,57.1c-1.8-0.2-5.7-3.2-6.6-4.6c0.4,0.1,2.4,2,3.1,2.5
	c0.6,0.4,1.1,0.7,1.7,1.1C97.2,56.5,98,56.7,98.5,57.1L98.5,57.1z M115.9,52.9c0.3-0.4,0.2-0.3,0.6-0.4
	C116.2,52.9,116.4,52.8,115.9,52.9z M91.9,52.6l-0.1-0.1L91.9,52.6z M91.7,52.4l-0.1-0.1L91.7,52.4z M91.6,52.3l-0.1-0.1L91.6,52.3z
	 M116.5,52.4l0.6-0.6C117,52.3,117,52.3,116.5,52.4z M109.3,52l0,0.1l-0.1-0.1L109.3,52L109.3,52z M91.4,52.1l-0.1,0l0.1-0.1
	L91.4,52.1L91.4,52.1z M109.3,52l0.3-0.2L109.3,52z M117.1,51.8l0-0.1l0.1,0.1L117.1,51.8L117.1,51.8z M119.9,48.6
	C119.9,48.6,119.9,48.6,119.9,48.6C119.9,48.7,120,48.7,119.9,48.6C120,48.7,119.7,48.8,119.9,48.6z M120.3,48.2l0,0.1l-0.1-0.1
	L120.3,48.2L120.3,48.2z M120.5,47.9l-0.1,0.3L120.5,47.9z M120.5,47.9l0.3-0.4L120.5,47.9z M120.9,47.2l-0.1,0.3L120.9,47.2z
	 M88.3,47.2C88.4,47.1,88.4,47.2,88.3,47.2C88.4,47.2,88.4,47.2,88.3,47.2C88.4,47.2,88.1,47.3,88.3,47.2z M121.1,46.9l-0.1,0.3
	L121.1,46.9z M121.2,46.6l-0.1,0.3L121.2,46.6z M121.2,46.6l0.1-0.3L121.2,46.6z M121.5,45.8l-0.1,0.3L121.5,45.8z M121.5,45.8
	l0.1-0.3L121.5,45.8z M121.7,45.2C121.7,45.2,121.7,45.3,121.7,45.2C121.7,45.3,121.7,45.3,121.7,45.2
	C121.7,45.3,121.5,45.4,121.7,45.2z M121.8,44.9C121.8,44.6,122,44.9,121.8,44.9C121.9,44.9,121.8,45.3,121.8,44.9z M122,44.4
	C122,44.3,122,44.4,122,44.4C122,44.4,122,44.4,122,44.4C122,44.4,121.8,44.6,122,44.4z M122.2,43.5
	C122.2,43.1,122.4,43.4,122.2,43.5C122.3,43.5,122.2,43.9,122.2,43.5z M122.4,42.7C122.4,42.7,122.4,42.8,122.4,42.7
	C122.4,42.8,122.5,42.8,122.4,42.7C122.4,42.8,122.2,42.9,122.4,42.7z M122.5,42c0.2,0.2,0.1-0.2,0.1,0.4L122.5,42z M122.7,41.8
	c0-0.3,0.1-3.4,0.2-3.5C123,39.3,123.1,41.1,122.7,41.8z M110.7,51.6l-0.4,0.1c-0.1,0.4-0.4,0-0.4,0c-0.8,0-1.1,0.2-1.8,0.3
	c-0.6,0.1-1.5,0.1-2,0.2c-1,0.1-3.1,0.2-3.8-0.3c-1.4-0.1-3.6-1.6-4.4-1.6c0.1,0.8,0.8,1.5,1.3,2.1c-2.3,0.3-4.3-2.4-6-3.6l0.2,0.7
	c-0.7-0.1-0.6-0.6-1.2-1l-0.2,0.2L91.3,48c0.2,1.5,3.4,4.4,4.6,5.3c1.7,1.3,5.3,2.8,7.4,2.8c0.3-0.4,0.4,0,0.9,0.1
	c0.1,0,0.3,0,0.4,0.1c2,0.4,3.7-0.2,5.2-0.2c-0.8,0.6-2.1,0.5-3.2,0.6c1.1,0.5,2.8-0.3,3.9-0.3c-1.8,1.3-7.3,0.7-10.1-0.2
	c-0.6-0.2-2.4-1-2.8-1.1l0.6,0.5c-2.4-0.6-5.6-3.8-7-5.6c-0.8-1.1-1.8-2.6-2.3-4c-0.5-1.3-1.4-3.6-1.4-5L87,41
	c0.2,0.8,0.2,1.8,0.6,3.1c0.2,0.9,0.5,2.1,0.9,2.9c-0.5-0.1-0.9-1.4-1.1-1.9c-0.2-0.4-0.3-0.7-0.4-1.1c-0.2-0.5-0.3-0.8-0.7-0.9
	c-0.4,0.8-0.1,1.9,0.2,2.6c1.9,5.7,6.3,10.8,12,12.7c2.4,0.8,3.4,1,6.1,1c3.7,0,8.2-1,11.2-2.8c4.3-2.6,7.2-8.1,8-13.1
	c0.3-2.1,0.3-4.4,0-6.5c-1.2-7.3-6.3-12.7-13.2-14.9c-1.6-0.5-4.3-1.1-6-1c-0.4-0.5-0.7-1.4-1.2-2.1c-1.1-1.4-3.8-4.1-5.4-4.3
	c0.3,0.4,1.3,0.9,1.8,1.3c1.1,1,4.1,3.9,4.3,5c-1,0.1-2.7-0.1-3.5,0.3c1.2,0.1,2.3-0.2,3.6-0.1c0.5,0.4,0.3,0.4,0.6,0.7l-0.1-0.7
	c0.5,0.1,0.9,0.1,1.3,0.1c0.5,0.1,0.8,0.2,1.3,0.3c-0.1,0.5-0.3,0.3,1.4,0.9c-0.8,0.1-2.6-0.3-3.5-0.4c-0.4,0-2.9,0.1-3,0.9
	c0.8,0.6,5.2,0.2,6.8,1c-0.7,0.1-1.2-0.1-1.9-0.1c-0.7,0-1.1-0.2-1.9-0.2c-0.7,0-3,0.3-3.4,0.7c1.3,0.1,2-0.1,4.3,0.2
	c1.4,0.2,2.2,0,3.7,0.7c0.7,0.3,0.8,0.2,1.3,0.4c0.4,0.2,2,1.2,2.3,1.4c2.6,2.6,3.9,3.5,5.3,7.2c0.2,0.6,0.5,0.9,0.7,1.3l0.2,3.1
	c-0.2,1,0,2.2-0.3,3.3c-0.3,1.4-1.2,3.7-2.2,4.9c0,0.4,0-0.1,0.2,0.5c-0.8,0.3-2,1.8-2.9,2.4c-0.7,0.5-0.8,0.8-1.5,1.1
	C112.1,51,111.2,51.5,110.7,51.6L110.7,51.6z"/>
<path class="st1" d="M88.8,40.5c0.1-0.1,0.5,0.2,0.2,0.1C88.9,40.6,88.6,40.7,88.8,40.5z M87.9,40.3l0.4,0
	C87.8,40.6,88.1,40.5,87.9,40.3z M87.9,40.3l-0.4,0C88,40.1,87.7,40.2,87.9,40.3z M87.2,40.1C87.2,40,87.2,40.1,87.2,40.1
	C87.2,40.1,87.2,40.1,87.2,40.1C87.2,40.1,87,40.3,87.2,40.1z M83.8,38.3l0.1,0l-0.1,0.1L83.8,38.3L83.8,38.3z M83.8,38.3l-0.1,0
	l0.1-0.1L83.8,38.3L83.8,38.3z M83.2,37.9l0.1,0L83.3,38L83.2,37.9L83.2,37.9z M83.2,37.9l-0.1-0.1L83.2,37.9z M83.1,37.7l-0.1,0
	l0.1-0.1L83.1,37.7L83.1,37.7z M80.1,34.2l0.1,0l-0.1,0.1L80.1,34.2L80.1,34.2z M80.1,34.2l-0.1,0l0.1-0.1L80.1,34.2L80.1,34.2z
	 M79.8,33.7l0.1,0l-0.1,0.1L79.8,33.7L79.8,33.7z M79.8,33.7l-0.2-0.3L79.8,33.7z M79.5,33.2C79.5,33.1,79.6,33.2,79.5,33.2
	C79.6,33.2,79.6,33.2,79.5,33.2C79.6,33.2,79.3,33.4,79.5,33.2z M79.4,32.9C79.4,32.9,79.4,32.9,79.4,32.9
	C79.4,32.9,79.5,32.9,79.4,32.9C79.4,32.9,79.2,33.1,79.4,32.9z M79.2,32.6C79.2,32.2,79.4,32.5,79.2,32.6
	C79.3,32.6,79.2,33,79.2,32.6z M79.1,32.1C79.1,32.1,79.1,32.2,79.1,32.1C79.1,32.2,79.2,32.2,79.1,32.1
	C79.2,32.2,78.9,32.3,79.1,32.1z M104,31.8l0,0.1l-0.1-0.1L104,31.8L104,31.8z M102.9,31.7l-0.1,0.3L102.9,31.7z M79,31.7
	C79,31.7,79,31.7,79,31.7C79,31.7,79,31.8,79,31.7C79,31.7,78.8,31.9,79,31.7z M103,31.4l-0.1,0.3L103,31.4z M81.5,28.9l0,0.4
	C81.2,28.8,81.3,29.1,81.5,28.9z M77.7,26.3l0,2.3C77.5,28.1,77.5,26.7,77.7,26.3z M81.2,28.3C81.2,28.3,81.2,28.3,81.2,28.3
	C81.2,28.4,81.2,28.4,81.2,28.3C81.2,28.4,81,28.5,81.2,28.3z M76.6,24.1C76.6,23.7,76.8,24,76.6,24.1
	C76.7,24.1,76.6,24.4,76.6,24.1z M76.7,23.5C76.8,23.5,76.8,23.5,76.7,23.5C76.8,23.5,76.8,23.5,76.7,23.5
	C76.8,23.5,76.6,23.7,76.7,23.5L76.7,23.5z M82.5,22.9l0,0.1l-0.1-0.1L82.5,22.9L82.5,22.9z M80,19.5l0,0.1l-0.1-0.1L80,19.5
	L80,19.5z M80,19.5l0-0.1l0.1,0.1L80,19.5L80,19.5z M78.8,19.4C78.8,19.3,78.8,19.4,78.8,19.4C78.8,19.4,78.9,19.4,78.8,19.4
	C78.9,19.4,78.6,19.6,78.8,19.4L78.8,19.4z M79.2,18.9l0,0.1L79.1,19L79.2,18.9L79.2,18.9z M79.4,18.8l-0.1,0.1L79.4,18.8z
	 M79.5,18.5l-0.1,0.3L79.5,18.5z M79.7,18.3l-0.1,0.1L79.7,18.3z M79.8,18.2l-0.1,0.1L79.8,18.2z M79.8,18.2c0.1-0.4,0-0.3,0.4-0.6
	C80.1,18,80.2,17.9,79.8,18.2z M80.6,17.3l0,0.3l-0.3,0L80.6,17.3L80.6,17.3z M80.9,17l0,0.3l-0.3,0L80.9,17L80.9,17z M80.9,17
	c0.3-0.4,0.7-0.9,1.2-1C81.7,16.4,81.3,16.9,80.9,17z M82,16c0.3-0.4,0.7-0.7,1.2-0.9C83,15.5,82.4,15.9,82,16z M83.2,15.1l0-0.1
	l0.1,0.1L83.2,15.1L83.2,15.1z M87,40.9l0.4,0c0.7,0.6,4.9,0.8,5.9,0.3h0.1c2.2,0.3,7.1-2.7,8.7-5c2.1-2.8,3.9-6.2,3.9-9.9
	c-0.2,0.3-0.4,1.9-0.5,2.4c-0.2,1-0.3,1.3-0.8,2.3l-0.4,0l-0.4,0.7c0.1-0.7,0.5-1.5,0.6-2.3c0.2-0.9,0.4-1.7,0-2.5
	c-0.8,0.6-0.9,3.6-1.6,4.4c0-1.3,1.1-3.4,0.5-4.7c-0.4,0.5-0.4,1.5-0.6,2.2c-0.2,0.7-0.4,1.5-0.6,2.2c-0.9,2.5-3.2,4.6-5.5,5.8
	c-2.1,1-3.5,0.9-4.3,1.4c-1.5-0.4-1.9-0.2-2.2-0.3c-0.3,0-0.2-0.1-0.6-0.2c-0.8,0-0.3,0-0.6-0.2c-0.3,0,0,0-0.2-0.1
	c-0.4,0.2-1.3-0.2-1.8-0.5l-0.5-0.3c-0.9-0.5-1.6-0.9-2.3-1.6c-0.3-0.4-0.3-0.4-0.7-0.3c-0.2-1.2-2.3-3.2-2.2-5.1
	c0-0.5,0.4-0.4,0-0.9c0-1.8,0-4.1,0.7-5.6l0.4-0.4h-0.1l0.1-0.3l0.1-0.3l0.3-0.4c0.2-0.6,0.8-1.4,1.3-1.8l-0.1-0.3
	c-1,0.1-1.1,0.5-1.8,0.6c0.3-1.6,2.4-2.9,3.6-3.8l-0.6-0.2l1.2-0.7l-0.3-0.1l0.3-0.1l0.3-0.4c-2.2,0.2-4.9,2.7-6.3,4.5
	c-2.5,3.4-2.6,7.8-2.8,8.2l0-1.7c-0.5-0.4,0.6-3.2,0.8-3.8c0.3-0.8,1.6-2.7,1.7-3.1l-0.3-0.1c1.8-1.8,2.6-3.1,5.5-4.5
	c1.2-0.6,2.4-0.9,3.7-1.1c2.5-0.5,2.7-0.1,4.7-0.3c-0.9-0.5-3.3-0.5-4.4-0.3c-0.3,0.1-1.3,0.2-1.6,0.1c0.7-0.4,3-0.5,3.4-1
	c-0.8-1-4.5,0.1-5.5,0.5c-4.3,1.8-7.2,4.2-9,8.6c-1.6,4-1.1,11.2,1.5,14.1c1.4,1.5,1.9,2.2,3.7,3.4C83.4,39.6,85.6,40.9,87,40.9
	L87,40.9z"/>
<path class="st0" d="M86.7,36.8l0.5,0.3c0-1,0.8-3.2,1.2-4.1c0.8-2.1,2.6-4.8,4.2-6.4c0.5-0.5,2.5-2.3,2.8-2.7
	c-1.7,0.2-4.5,3.7-5.5,5.3c-0.7,1.1-1.4,2.5-1.7,3.7C87.8,33.6,87.1,36.5,86.7,36.8L86.7,36.8z M89.1,37.7c0.2,0.2-0.2,0.2,0.6,0.2
	c0.2-1.1,0.4-2.2,0.8-3.3c0.3-0.9,1-2.1,1.2-2.8c-1.1,0.8-2.1,4.3-2.1,5.6C89.4,37.9,89.7,37.6,89.1,37.7L89.1,37.7z M90.5,47.8
	c-0.4-1.5-1.1-2-1.7-5.4c-0.1-0.3,0-0.2-0.1-0.5c-0.2-0.6,0-0.1-0.2-0.4c-0.3,0.5,0.4,2.9,0.6,3.4C89.3,45.6,90,47.4,90.5,47.8
	L90.5,47.8z M99.3,17.8c-1.1-1.5-4.5-3-6.4-2.9l0.9,0.2C97.2,16,98.8,17.8,99.3,17.8L99.3,17.8z M87.6,14.5l3.6-0.4
	c0.2,0,0.3,0.3,1.1-0.2C90.9,13.9,88.6,13.8,87.6,14.5z"/>
<path class="st1" d="M97.3,14.2c-0.5-0.7-2.2-1.2-3.1-1.1C94.3,13.1,97,14.1,97.3,14.2z"/>
<path class="st0" d="M99.2,50.3L97,48.6C97.2,49.6,98.2,50.1,99.2,50.3z M88.9,37.6c0.1-0.2,0.3-1.4,0.4-1.8
	c0.1-0.6,0.4-1.1,0.5-1.7C89.2,34.7,88.9,36.6,88.9,37.6z"/>
<path class="st1" d="M84.4,20.1L83.9,21l1.6-1.5C84.8,19.6,84.9,19.7,84.4,20.1L84.4,20.1z"/>
<path class="st0" d="M94.4,45.1c0,0.5,0.1,0.8,0.4,1.2C95,45.8,94.8,45.3,94.4,45.1z M93.5,41.3h-0.1c-0.2,0.5-0.3,0.8,0.3,0.9
	L93.5,41.3z M93.5,36.4c0.3-0.4,0.4-0.9,0.4-1.3C93.6,35.4,93.5,35.8,93.5,36.4z M87.8,18.1c0.1,0.2-0.2,0.4,0.5,0.2
	c0.2-0.1,0.4-0.3,0.5-0.3L87.8,18.1L87.8,18.1z M109.8,51.7h0.4l0.4-0.1v-0.1C110.1,51.4,110.2,51.3,109.8,51.7L109.8,51.7z
	 M102.1,51.8l0.7,0l-1-0.3L102.1,51.8z M96.1,18.9c-0.3-0.3-0.3-0.4-0.7-0.2L96.1,18.9z M101.8,51.5l-0.9-0.3
	C101.4,51.6,101.3,51.5,101.8,51.5z M90.8,17.7l0.9,0l-0.9-0.1V17.7z M100.2,21.7c-0.6,0-0.3-0.1-0.6,0.1
	C100.2,21.8,99.9,21.9,100.2,21.7z M95.4,14.9c-0.3-0.2,0-0.1-0.6-0.1C95.1,15,94.8,14.9,95.4,14.9z M89.8,34l0.3-0.6l-0.3,0.2
	L89.8,34z M94.8,14.8c-0.1-0.1,0.1-0.3-0.4,0L94.8,14.8z M86.7,14.8c0.1,0.1,0.5-0.2,0.2-0.1C86.9,14.7,86.5,14.6,86.7,14.8z
	 M87.6,14.5l-0.4,0C87.7,14.8,87.4,14.6,87.6,14.5z M82.6,22.9l0.1-0.3h-0.1V22.9z M82.8,22.6l0.1-0.3h-0.1V22.6z M83.1,22.1
	l0.1-0.3h-0.1V22.1z M86.7,15.5v0.1l0.3-0.1L86.7,15.5z M105.6,25.7l0.1-0.6c0,0-0.1,0-0.1,0.1L105.6,25.7z M90.8,48.4l0,0.1
	l0.1-0.1L90.8,48.4z M83.6,21.3l-0.1,0l0.1,0.1L83.6,21.3z M91.6,31.8l0.1,0l-0.1-0.1L91.6,31.8z M94.4,45.1l0-0.1L94.2,45
	L94.4,45.1z M99.3,22l-0.1,0l0.1,0.1L99.3,22z M90.2,33l0.1,0l-0.1-0.1L90.2,33z M100.1,50.8l0,0.1l0.1-0.1L100.1,50.8z M96.4,19.1
	l0,0.1l0.1-0.1L96.4,19.1z M83.4,21.7l0.1,0l-0.1-0.1L83.4,21.7z M110.6,51.4l0.1,0l-0.1-0.1L110.6,51.4z M90.8,48.4l0-0.1l-0.1,0.1
	L90.8,48.4z M98.6,16.7l0,0.1l0.1-0.1L98.6,16.7z"/>
<path class="st1" d="M85.6,19.5l0.1,0l-0.1-0.1L85.6,19.5z M80.4,19.2l0.1,0l-0.1-0.1L80.4,19.2z"/>
<path class="st0" d="M90.4,32.7C90.4,32.7,90.4,32.7,90.4,32.7C90.4,32.7,90.5,32.7,90.4,32.7C90.5,32.7,90.2,32.5,90.4,32.7z
	 M93.9,34.9C93.9,34.9,94,34.9,93.9,34.9C94,34.9,94,34.9,93.9,34.9C94,34.9,93.7,34.7,93.9,34.9z M77.9,25.5
	C77.9,25.5,78,25.5,77.9,25.5C78,25.5,78,25.5,77.9,25.5C78,25.5,77.7,25.3,77.9,25.5L77.9,25.5z M106.1,26.4l0.2-0.3L106.1,26.4z
	 M90.1,33.4l0.1-0.4L90.1,33.4z M83.1,22.1l-0.1,0.1L83.1,22.1z M99.6,21.8L99.3,22L99.6,21.8z M83.4,21.7l-0.1,0.1L83.4,21.7z
	 M83.8,21.1l-0.1,0.1L83.8,21.1z M83.9,21l-0.1,0.1L83.9,21z M100.2,21.7l0.3-0.1L100.2,21.7z M97.6,14.4l-0.3-0.1L97.6,14.4z
	 M96.4,19.1l-0.3-0.1L96.4,19.1z M90.5,47.8l0.1,0.3L90.5,47.8z M92,48.3L91.9,48L92,48.3z M97.9,14.5l-0.3-0.1L97.9,14.5z
	 M92.2,48.4L92,48.3L92.2,48.4z M95.7,15.1l-0.3-0.1L95.7,15.1z M96.7,15.5l-0.3-0.1L96.7,15.5z M99.5,50.5l-0.3-0.1L99.5,50.5z
	 M96.1,15.2l-0.4-0.1L96.1,15.2z M99.8,50.6l-0.3-0.1L99.8,50.6z M100.1,50.8l-0.3-0.1L100.1,50.8z M96.4,15.4l-0.3-0.1L96.4,15.4z
	 M100.7,51.1l-0.3-0.2L100.7,51.1z M98.6,16.7l-0.4-0.3L98.6,16.7z M101,51.2l-0.3-0.1L101,51.2z M98.2,16.4L98,16.3L98.2,16.4z"/>
<path class="st1" d="M77.9,26.1l0.2-0.3L77.9,26.1z"/>
<path class="st0" d="M98,16.3l-0.3-0.1L98,16.3z M97.7,16.1l-0.4-0.3L97.7,16.1z M97.3,15.8L97,15.7L97.3,15.8z M97,15.7l-0.3-0.1
	L97,15.7z M103.3,56.1l0.3,0.2L103.3,56.1z M51.1,65.9c-1.4-1.4-3.6-2-5.5-2c-3.4,0-6.9,1.7-6.9,5.5c0,3.5,2.5,4.6,4.8,5.4
	c2.4,0.7,4.3,1.3,4.3,3.3c0,2-1.8,2.8-3.4,2.8c-1.5,0-3.2-0.8-4.1-2.1L37.9,81c1.5,1.8,4,2.7,6.5,2.7c3.7,0,6.9-2,6.9-6
	c0-3.7-3.1-4.8-5.5-5.5c-2.1-0.7-3.6-1.2-3.6-2.9c0-1.8,1.8-2.6,3.3-2.6c1.3,0,2.7,0.7,3.5,1.6L51.1,65.9L51.1,65.9z M149.3,87.1
	c1.5,1.5,3.7,2.5,6,2.5c5.5,0,6.8-3.8,6.8-6.5V70.8h-1.8v2.2h-0.1c-1-1.6-2.9-2.5-4.7-2.5c-3.9,0-6.4,2.9-6.4,6.4
	c0,3.7,2.6,6.3,6.4,6.3c1.8,0,3.8-0.9,4.7-2.5h0.1v2.3c0,2.7-1.3,4.9-4.9,4.9c-1.9,0-3.8-1-4.8-2.3L149.3,87.1L149.3,87.1z
	 M151,76.8c0-2.6,1.7-4.9,4.7-4.9c2.8,0,4.8,2.3,4.8,4.9c0,2.9-2,4.9-4.8,4.9C152.7,81.7,151,79.4,151,76.8z M140.8,73.5v9.7h1.8
	v-6.4c0-3.3,1.7-4.7,3.7-4.7c0.5,0,1.1,0.1,1.3,0.2l0.2-1.7c-0.4-0.1-0.7-0.1-1.2-0.1c-1.8,0-3.3,1-4,2.5h-0.1
	c0-0.5-0.1-1.5-0.1-2.1h-1.7C140.8,71.6,140.8,72.8,140.8,73.5L140.8,73.5z M137,77c0-3.8-2.8-6.6-6.7-6.6c-3.9,0-6.6,2.8-6.6,6.6
	s2.8,6.6,6.6,6.6C134.2,83.5,137,80.7,137,77z M135,77c0,2.8-1.8,5-4.7,5c-2.9,0-4.7-2.2-4.7-5s1.8-5,4.7-5
	C133.2,72,135,74.2,135,77z M120.1,81.9c0-0.7-0.6-1.4-1.4-1.4s-1.4,0.7-1.4,1.4c0,0.7,0.6,1.4,1.4,1.4S120.1,82.7,120.1,81.9z
	 M107.9,70.1c-1.9,0-3.4,0.9-4.2,2.4c-0.7-1.4-2-2.4-4-2.4c-2.1,0-3.4,1.2-4,2.4h-0.1v-2.1h-3v12.8h3.2v-7c0-1.7,0.9-3.5,2.8-3.5
	c1.6,0,2.4,1.2,2.4,2.8v7.7h3.2v-7c0-1.7,0.8-3.5,2.8-3.5c2.1,0,2.4,1.9,2.4,3.4v7.1h3.2v-8C112.7,72.6,111.3,70.1,107.9,70.1
	L107.9,70.1z M88.8,70.4h-3.2v7c0,1.7-1,3.5-3,3.5c-2.1,0-2.4-1.9-2.4-3.4v-7.1h-3.2v8c0,2.6,1.4,5.2,4.7,5.2c1.9,0,3.4-1.1,4-2.4
	h0.1v2.1h3L88.8,70.4L88.8,70.4z M67.5,83.2h3.2v-6.8c0-0.9,0.6-3.4,3.4-3.4c0.3,0,0.6,0,1,0.1v-2.9c-0.2-0.1-0.5-0.1-0.8-0.1
	c-1.7,0-3,1-3.7,2.5h-0.1v-2.1h-3.1L67.5,83.2z M65.4,72.1c-1-1.3-3-2-4.8-2c-3.8,0-6.8,2.6-6.8,6.8c0,4.3,3.1,6.8,6.9,6.8
	c1.9,0,3.7-0.6,4.7-1.8l-2-2c-0.6,0.7-1.7,1.1-2.7,1.1c-2.4,0-3.6-2.1-3.6-4.1s1.2-4.1,3.5-4.1c1,0,2.1,0.5,2.6,1.3L65.4,72.1
	L65.4,72.1z"/>
</svg>
