<?xml version="1.0" encoding="utf-8"?>
<!-- Generator: Adobe Illustrator 22.1.0, SVG Export Plug-In . SVG Version: 6.00 Build 0)  -->
<svg version="1.1" id="Capa_1" xmlns="http://www.w3.org/2000/svg" xmlns:xlink="http://www.w3.org/1999/xlink" x="0px" y="0px"
	 viewBox="0 0 200 100" style="enable-background:new 0 0 200 100;" xml:space="preserve">
<style type="text/css">
	.st0{fill:#E8762C;}
	.st1{fill:#C62036;}
	.st2{fill:#5A869A;}
	.st3{fill:#5C6691;}
	.st4{fill:#EB9028;}
	.st5{fill-rule:evenodd;clip-rule:evenodd;fill:#1E457E;}
	.st6{fill:#7098A4;}
	.st7{fill-rule:evenodd;clip-rule:evenodd;fill:#5A869A;}
	.st8{fill:#1E457E;}
</style>
<polygon class="st0" points="30.3,49 25.4,49 25.4,43.6 23.4,43.6 23.4,49 18.4,49 18.4,50.9 23.4,50.9 23.4,56.4 25.4,56.4 
	25.4,50.9 30.3,50.9 "/>
<polygon class="st1" points="20.3,57.9 15.9,57.9 15.9,53 14.2,53 14.2,57.9 9.7,57.9 9.7,59.3 14.2,59.3 14.2,64.2 15.9,64.2 
	15.9,59.3 20.3,59.3 "/>
<polygon class="st2" points="39,40.5 34.6,40.5 34.6,35.7 32.9,35.7 32.9,40.5 28.4,40.5 28.4,42 32.9,42 32.9,46.8 34.6,46.8 
	34.6,42 39,42 "/>
<polygon class="st3" points="28.2,63.2 25.1,63.2 25.1,59.8 23.7,59.8 23.7,63.2 20.7,63.2 20.7,64.5 23.7,64.5 23.7,67.9 
	25.1,67.9 25.1,64.5 28.2,64.5 "/>
<polygon class="st4" points="20.3,40.5 15.8,40.5 15.8,35.7 14.3,35.7 14.3,40.5 9.7,40.5 9.7,42 14.3,42 14.3,46.8 15.8,46.8 
	15.8,42 20.3,42 "/>
<polygon class="st3" points="42.5,49.3 39.4,49.3 39.4,46 38,46 38,49.3 35,49.3 35,50.6 38,50.6 38,54 39.4,54 39.4,50.6 
	42.5,50.6 "/>
<polygon class="st5" points="39,57.9 34.6,57.9 34.6,53 32.9,53 32.9,57.9 28.4,57.9 28.4,59.3 32.9,59.3 32.9,64.2 34.6,64.2 
	34.6,59.3 39,59.3 "/>
<polygon class="st6" points="23.9,32.2 23.9,35.5 20.9,35.5 20.9,36.5 23.9,36.5 23.9,39.9 25,39.9 25,36.5 27.9,36.5 27.9,35.5 
	25,35.5 25,32.2 "/>
<polygon class="st6" points="13.3,49.5 10.3,49.5 10.3,46.2 9.3,46.2 9.3,49.5 6.3,49.5 6.3,50.5 9.3,50.5 9.3,53.8 10.3,53.8 
	10.3,50.5 13.3,50.5 "/>
<g>
	<path class="st7" d="M58.7,68.5c0.4,0.2,0.8,0.3,1.2,0.3c0.9,0,1.4-0.4,1.4-1c0-0.4-0.1-0.7-0.5-0.9c-0.3-0.2-0.5-0.3-0.8-0.4
		c-0.3-0.1-0.5-0.2-0.5-0.4c0-0.2,0.2-0.3,0.5-0.3c0.3,0,0.7,0.1,1.1,0.3v-0.7c-0.4-0.2-0.8-0.3-1.2-0.3c-0.8,0-1.3,0.4-1.3,1
		c0,0.6,0.4,0.9,1.3,1.2c0.3,0.1,0.5,0.2,0.5,0.4c0,0.2-0.2,0.3-0.5,0.3c-0.4,0-0.7-0.2-1.2-0.4V68.5z"/>
	<path class="st7" d="M75.5,67c0,0.5,0.2,0.9,0.5,1.3c0.3,0.3,0.8,0.5,1.3,0.5c0.5,0,1-0.2,1.3-0.5c0.4-0.3,0.5-0.8,0.5-1.3
		c0-0.5-0.2-0.9-0.5-1.3c-0.3-0.3-0.8-0.5-1.3-0.5c-0.5,0-1,0.2-1.3,0.5C75.7,66.1,75.5,66.5,75.5,67 M76.4,67c0-0.6,0.4-1.1,1-1.1
		c0.6,0,1,0.4,1,1.1c0,0.6-0.4,1-1,1C76.8,68.1,76.4,67.6,76.4,67"/>
	<polygon class="st7" points="94.4,68.7 95.3,68.7 95.3,67.3 96.5,67.3 96.5,66.7 95.3,66.7 95.3,65.9 96.6,65.9 96.6,65.3 
		94.4,65.3 	"/>
	<polygon class="st7" points="112.6,68.7 113.5,68.7 113.5,66 114.6,66 114.6,65.3 111.5,65.3 111.5,66 112.6,66 	"/>
	<polygon class="st7" points="129.8,68.8 130.1,68.8 130.9,66.6 131.7,68.8 132,68.8 133.4,65.3 132.5,65.3 131.9,67.2 131.2,65.3 
		130.6,65.3 130,67.2 129.3,65.3 128.4,65.3 	"/>
	<path class="st7" d="M146.3,68.7h0.9l0.3-0.7h1.5l0.2,0.7h0.9l-1.3-3.4h-1L146.3,68.7z M147.8,67.5l0.5-1.3l0.5,1.3H147.8z"/>
	<path class="st7" d="M164,68.7h0.9v-1.4c0,0,0.1,0,0.1,0c0.3,0,0.5,0.1,0.6,0.4l0.4,1h1l-0.5-1.2c-0.1-0.2-0.2-0.4-0.4-0.4
		c0.4-0.2,0.6-0.4,0.6-0.8c0-0.7-0.4-1-1.4-1H164V68.7z M165.3,66.7h-0.4v-0.8h0.4c0.3,0,0.5,0.1,0.5,0.4
		C165.8,66.6,165.6,66.7,165.3,66.7"/>
	<polygon class="st7" points="181.2,68.7 183.5,68.7 183.5,68.1 182,68.1 182,67.3 183.4,67.3 183.4,66.6 182,66.6 182,65.9 
		183.5,65.9 183.5,65.3 181.2,65.3 	"/>
	<path class="st5" d="M102.5,47.2c1.2-0.5,2.2-0.6,2.9-0.6c3.3,0,5.6,2.3,5.6,6c0,3.8-2.4,6-6.6,6c-1.5,0-2.9-0.3-4.4-0.8L100,41
		h2.5V47.2z M104.7,56.4c2.3,0,3.7-1.3,3.7-3.7c0-2.3-1.3-3.8-3.4-3.8c-0.9,0-1.8,0.3-2.4,0.6V56C103.3,56.2,104,56.4,104.7,56.4"/>
	<rect x="121.4" y="38.6" class="st5" width="2.5" height="22.2"/>
	<path class="st5" d="M137.5,51.3h5.7c-0.1-1.5-0.9-2.3-2.3-2.4C139.4,48.8,138,49.8,137.5,51.3 M140.3,58.7c-3.8-0.4-5.7-3-5.6-6.2
		c0.1-3.4,2.3-5.9,5.7-5.9c3.6,0,5.6,2.6,5.4,6.5h-8.6c0.2,2.1,1.5,3.2,3.3,3.3c1.5,0.1,3.5-0.2,4.7-0.9v2.4
		C143.8,58.6,142.3,58.9,140.3,58.7"/>
	<path class="st5" d="M182.6,56.8c1.6,0,2.6-0.8,2.6-2.6v-7.3h2.5v7.6c0,2.6-2,4.1-5.1,4.1c-3.1,0-5.1-1.6-5.1-4.1v-7.6h2.5v7.3
		C180,56,181.1,56.8,182.6,56.8"/>
	<path class="st5" d="M83.5,58.7c-4.2,0-6.6-2.2-6.6-6c0-3.7,2.3-6,5.6-6c1.1,0,2.1,0.2,2.9,0.8v-0.8H88l-0.1,11.3
		C86.9,58.4,85.1,58.7,83.5,58.7 M83.3,56.4c0.6,0,1.3-0.1,2.1-0.3l0-6.4c-0.8-0.5-1.6-0.8-2.4-0.8c-2.1,0-3.4,1.4-3.4,3.8
		C79.6,55,81,56.4,83.3,56.4"/>
	<path class="st5" d="M162.5,58.7c-4.2,0-6.6-2.2-6.6-6c0-3.7,2.3-6,5.6-6c1.1,0,2.1,0.2,2.9,0.8v-0.8h2.5l-0.1,11.3
		C165.9,58.4,164.1,58.7,162.5,58.7 M162.3,56.4c0.5,0,1.3-0.1,2.1-0.3l0-6.4c-0.8-0.5-1.6-0.8-2.4-0.8c-2.1,0-3.4,1.4-3.4,3.8
		C158.6,55,160,56.4,162.3,56.4"/>
</g>
<g>
	<polygon class="st8" points="58.4,41.8 60.9,41.8 60.9,48.8 67.5,48.8 67.5,51.2 60.9,51.2 60.9,58.8 58.4,58.8 58.4,51.2 
		51.7,51.2 51.7,48.8 58.4,48.8 	"/>
	<path class="st8" d="M191.9,46.8c0.8,0,1.5,0.7,1.5,1.5c0,0.8-0.6,1.5-1.5,1.5c-0.8,0-1.5-0.7-1.5-1.5
		C190.4,47.4,191,46.8,191.9,46.8L191.9,46.8z M191.9,47c-0.7,0-1.2,0.6-1.2,1.3c0,0.7,0.5,1.3,1.2,1.3c0.7,0,1.2-0.6,1.2-1.3
		C193,47.6,192.5,47,191.9,47L191.9,47z M191.6,49.1h-0.3v-1.7c0.1,0,0.3,0,0.5,0c0.3,0,0.4,0.1,0.5,0.1c0.1,0.1,0.2,0.2,0.2,0.3
		c0,0.2-0.1,0.3-0.3,0.4v0c0.1,0,0.2,0.2,0.3,0.4c0,0.3,0.1,0.4,0.1,0.4h-0.3c0-0.1-0.1-0.2-0.1-0.4c0-0.2-0.1-0.3-0.4-0.3h-0.2
		V49.1z M191.6,48.2h0.2c0.2,0,0.4-0.1,0.4-0.3c0-0.1-0.1-0.3-0.4-0.3c-0.1,0-0.1,0-0.2,0V48.2z"/>
</g>
</svg>
