<?xml version="1.0" encoding="utf-8"?>
<!-- Generator: Adobe Illustrator 22.1.0, SVG Export Plug-In . SVG Version: 6.00 Build 0)  -->
<svg version="1.1" id="Capa_1" xmlns="http://www.w3.org/2000/svg" xmlns:xlink="http://www.w3.org/1999/xlink" x="0px" y="0px"
	 viewBox="0 0 200 100" style="enable-background:new 0 0 200 100;" xml:space="preserve">
<style type="text/css">
	.st0{fill:#5558AF;}
	.st1{fill:#FFFFFF;}
</style>
<g>
	<path class="st0" d="M118.8,42.1c0.5,0.5,1.1,0.9,1.7,1.2c1.4,0.6,2.9,0.6,4.2,0c1.3-0.6,2.4-1.6,2.9-2.9c0.6-1.4,0.6-2.9,0-4.2
		c-0.6-1.3-1.6-2.4-2.9-2.9c-1.4-0.6-2.9-0.6-4.2,0c-1.3,0.6-2.4,1.6-2.9,2.9c-0.6,1.4-0.6,2.9,0,4.2
		C117.9,41,118.3,41.6,118.8,42.1L118.8,42.1z M117.2,47.2v16.4h2.7c0.9,0,1.9-0.1,2.8-0.3c0.9-0.2,1.8-0.5,2.7-0.9
		c0.8-0.4,1.5-1,2-1.7c0.5-0.8,0.8-1.8,0.8-2.7V47.2H117.2z M108.3,40.3c0.7,0,1.4-0.1,2.1-0.4c1.3-0.6,2.4-1.6,2.9-2.9
		c0.6-1.4,0.6-2.9,0-4.2c-0.6-1.3-1.6-2.4-2.9-2.9c-0.7-0.3-1.4-0.4-2.1-0.4c-0.7,0-1.4,0.1-2.1,0.4c-0.5,0.2-0.7,0.5-1.3,0.8v8.4
		c0.7,0.3,0.8,0.6,1.3,0.8C106.9,40.2,107.6,40.3,108.3,40.3L108.3,40.3z M104.9,68c0.7,0.1,0.9,0.3,1.4,0.3
		c0.5,0.1,1.1,0.1,1.6,0.1c0.8,0,1.7-0.1,2.5-0.3c0.8-0.2,1.6-0.5,2.3-0.9c0.7-0.4,1.3-1,1.7-1.7c0.5-0.8,0.7-1.8,0.7-2.7v-19h-10.3
		L104.9,68L104.9,68z M67.2,73.2l35.6,6.2V19.1l-35.6,6.2V73.2z"/>
</g>
<path class="st1" d="M93.2,37.6l-16.4,1v3.8l6.2-0.2v17.6l4.1,0.2V42l6.2-0.3V37.6z"/>
</svg>
