<?xml version="1.0" encoding="utf-8"?>
<!-- Generator: Adobe Illustrator 22.1.0, SVG Export Plug-In . SVG Version: 6.00 Build 0)  -->
<svg version="1.1" id="Capa_1" xmlns="http://www.w3.org/2000/svg" xmlns:xlink="http://www.w3.org/1999/xlink" x="0px" y="0px"
	 viewBox="0 0 27.3 27.3" style="enable-background:new 0 0 27.3 27.3;" xml:space="preserve">
<style type="text/css">
	.st0{fill:#7BC5F8;}
	.st1{fill:#FFFFFF;}
</style>
<g>
	<g>
		<path class="st0" d="M27.3,22.6c0,2.6-2.1,4.7-4.7,4.7h-18c-2.6,0-4.7-2.1-4.7-4.7v-18C0,2.1,2.1,0,4.7,0h18
			c2.6,0,4.7,2.1,4.7,4.7V22.6z"/>
	</g>
	<g>
		<polygon class="st1" points="23.2,6.2 23.2,6.2 23.2,6.2 		"/>
		<path class="st1" d="M22.5,8.1c-0.4,0.1-0.7,0.1-0.7,0.1l0-0.1c0.4-0.3,1.4-1.3,1.5-1.7c0.1-0.2,0-0.3,0-0.3L22,6.7l-1,0.5l0,0
			c-0.7-0.8-1.8-1.2-3-1.2c-2.2,0-3.9,1.5-3.9,3.4c0,0.3,0.1,1,0.2,1.3c0,0.1,0-0.1,0,0c-1.4,0-3.2-0.6-4.8-1.4C6.2,7.6,6,6.5,6,6.5
			C5.6,7,5.3,8.8,5.8,10.1c0.3,0.9,1.4,1.6,1.4,1.6l0,0c0,0-0.5,0-1-0.2c-0.5-0.2-0.7-0.3-0.7-0.3c-0.3,0.7,0.3,2.1,1.4,3
			c0.6,0.6,1.7,0.9,1.7,0.9l-1.8,0C6.8,17,10.5,18,10.5,18l0,0c-1.1,0.8-2.3,1.3-3.7,1.3c-0.7,0-1.4-0.1-2-0.3
			c1.8,1.5,4.1,2.5,6.6,2.3c6.6-0.3,10.3-6,10.5-11.6l0,0c0,0,0.3-0.2,1-0.8c0.7-0.7,1.1-1.4,1.1-1.4S22.9,8,22.5,8.1z"/>
		<path class="st1" d="M23.2,6.2C23.2,6.3,23.2,6.2,23.2,6.2L23.2,6.2z"/>
	</g>
</g>
</svg>
