<?xml version="1.0" encoding="utf-8"?>
<!-- Generator: Adobe Illustrator 22.1.0, SVG Export Plug-In . SVG Version: 6.00 Build 0)  -->
<svg version="1.1" id="Capa_1" xmlns="http://www.w3.org/2000/svg" xmlns:xlink="http://www.w3.org/1999/xlink" x="0px" y="0px"
	 viewBox="0 0 27.3 27.3" style="enable-background:new 0 0 27.3 27.3;" xml:space="preserve">
<style type="text/css">
	.st0{fill:#32BA46;}
	.st1{fill:#FFFFFF;}
</style>
<g>
	<g>
		<path class="st0" d="M27.3,22.6c0,2.6-2.1,4.7-4.7,4.7h-18c-2.6,0-4.7-2.1-4.7-4.7v-18C0,2.1,2.1,0,4.7,0h18
			c2.6,0,4.7,2.1,4.7,4.7V22.6z"/>
	</g>
	<g>
		<g>
			<path class="st1" d="M13.7,24.1c-1.8,0-3.6-0.5-5.2-1.4l-4.1,1.4l0.8-4.3c-1.3-1.8-2-3.9-2-6.1c0-5.8,4.7-10.5,10.5-10.5
				c5.8,0,10.5,4.7,10.5,10.5C24.1,19.4,19.4,24.1,13.7,24.1z M8.6,21l0.3,0.2c1.4,0.9,3.1,1.4,4.7,1.4c4.9,0,8.9-4,8.9-8.9
				c0-4.9-4-8.9-8.9-8.9c-4.9,0-8.9,4-8.9,8.9c0,2,0.7,3.9,1.9,5.5l0.2,0.3l-0.5,2.4L8.6,21z"/>
		</g>
		<path class="st1" d="M8.4,9.6c0,0,0.6-1.1,1.1-1.1c0.5-0.1,1.1-0.1,1.3,0.3c0.2,0.3,1,2.2,1,2.2s0.1,0.3-0.1,0.6
			C11.5,12,11,12.4,11,12.4s-0.3,0.3,0,0.7c0.3,0.3,0.7,1,1.5,1.8c0.8,0.8,2.4,1.4,2.4,1.4s0.2,0,0.4-0.1c0.1-0.1,0.9-1.1,0.9-1.1
			s0.2-0.3,0.7-0.1C17.3,15.1,19,16,19,16s0.2,0.1,0.2,0.4c0,0.3-0.1,1.1-0.4,1.4c-0.3,0.3-1,1.1-2.2,1.1c-1.2,0-3.9-0.9-5.4-2.4
			c-1.5-1.5-2.8-2.9-3.1-4.3C8,10.8,8,10.2,8.4,9.6z"/>
	</g>
</g>
</svg>
